{
	"patcher" : 	{
		"fileversion" : 1,
		"appversion" : 		{
			"major" : 8,
			"minor" : 5,
			"revision" : 5,
			"architecture" : "x64",
			"modernui" : 1
		}
,
		"classnamespace" : "box",
		"rect" : [ 1118.0, 87.0, 640.0, 480.0 ],
		"bglocked" : 0,
		"openinpresentation" : 0,
		"default_fontsize" : 12.0,
		"default_fontface" : 0,
		"default_fontname" : "Arial",
		"gridonopen" : 1,
		"gridsize" : [ 15.0, 15.0 ],
		"gridsnaponopen" : 1,
		"objectsnaponopen" : 1,
		"statusbarvisible" : 2,
		"toolbarvisible" : 1,
		"lefttoolbarpinned" : 0,
		"toptoolbarpinned" : 0,
		"righttoolbarpinned" : 0,
		"bottomtoolbarpinned" : 0,
		"toolbars_unpinned_last_save" : 0,
		"tallnewobj" : 0,
		"boxanimatetime" : 200,
		"enablehscroll" : 1,
		"enablevscroll" : 1,
		"devicewidth" : 0.0,
		"description" : "",
		"digest" : "",
		"tags" : "",
		"style" : "",
		"subpatcher_template" : "",
		"assistshowspatchername" : 0,
		"boxes" : [ 			{
				"box" : 				{
					"id" : "obj-40",
					"maxclass" : "newobj",
					"numinlets" : 1,
					"numoutlets" : 1,
					"outlettype" : [ "" ],
					"patching_rect" : [ 116.0, 135.153407344818106, 90.0, 22.0 ],
					"text" : "loadmess 2000"
				}

			}
, 			{
				"box" : 				{
					"id" : "obj-39",
					"maxclass" : "newobj",
					"numinlets" : 1,
					"numoutlets" : 1,
					"outlettype" : [ "" ],
					"patching_rect" : [ 250.384806189537045, 367.440232882499686, 90.0, 22.0 ],
					"text" : "loadmess 1000"
				}

			}
, 			{
				"box" : 				{
					"id" : "obj-38",
					"maxclass" : "newobj",
					"numinlets" : 1,
					"numoutlets" : 1,
					"outlettype" : [ "bang" ],
					"patching_rect" : [ 144.0, 186.042946228981009, 58.0, 22.0 ],
					"text" : "loadbang"
				}

			}
, 			{
				"box" : 				{
					"id" : "obj-32",
					"maxclass" : "comment",
					"numinlets" : 1,
					"numoutlets" : 0,
					"patching_rect" : [ 144.0, 218.0, 25.0, 20.0 ],
					"text" : "1"
				}

			}
, 			{
				"box" : 				{
					"id" : "obj-33",
					"maxclass" : "comment",
					"numinlets" : 1,
					"numoutlets" : 0,
					"patching_rect" : [ 176.5, 218.0, 25.0, 20.0 ],
					"text" : "1/2"
				}

			}
, 			{
				"box" : 				{
					"id" : "obj-36",
					"maxclass" : "message",
					"numinlets" : 2,
					"numoutlets" : 1,
					"outlettype" : [ "" ],
					"patching_rect" : [ 144.0, 240.0, 29.5, 22.0 ],
					"text" : "1"
				}

			}
, 			{
				"box" : 				{
					"id" : "obj-37",
					"maxclass" : "message",
					"numinlets" : 2,
					"numoutlets" : 1,
					"outlettype" : [ "" ],
					"patching_rect" : [ 176.5, 240.0, 29.5, 22.0 ],
					"text" : "0.5"
				}

			}
, 			{
				"box" : 				{
					"id" : "obj-29",
					"maxclass" : "comment",
					"numinlets" : 1,
					"numoutlets" : 0,
					"patching_rect" : [ 76.5, 325.0, 31.0, 20.0 ],
					"text" : "play"
				}

			}
, 			{
				"box" : 				{
					"id" : "obj-27",
					"maxclass" : "toggle",
					"numinlets" : 1,
					"numoutlets" : 1,
					"outlettype" : [ "int" ],
					"parameter_enable" : 0,
					"patching_rect" : [ 80.0, 347.0, 24.0, 24.0 ]
				}

			}
, 			{
				"box" : 				{
					"id" : "obj-25",
					"maxclass" : "comment",
					"numinlets" : 1,
					"numoutlets" : 0,
					"patching_rect" : [ 37.5, 142.0, 62.0, 20.0 ],
					"text" : "BPM (ms)"
				}

			}
, 			{
				"box" : 				{
					"id" : "obj-23",
					"maxclass" : "comment",
					"numinlets" : 1,
					"numoutlets" : 0,
					"patching_rect" : [ 148.0, 325.0, 50.0, 20.0 ],
					"text" : "release"
				}

			}
, 			{
				"box" : 				{
					"format" : 6,
					"id" : "obj-21",
					"maxclass" : "flonum",
					"numinlets" : 1,
					"numoutlets" : 2,
					"outlettype" : [ "", "bang" ],
					"parameter_enable" : 0,
					"patching_rect" : [ 148.0, 347.0, 50.0, 22.0 ]
				}

			}
, 			{
				"box" : 				{
					"id" : "obj-19",
					"maxclass" : "comment",
					"numinlets" : 1,
					"numoutlets" : 0,
					"patching_rect" : [ 342.0, 218.0, 34.0, 20.0 ],
					"text" : "1/32"
				}

			}
, 			{
				"box" : 				{
					"id" : "obj-18",
					"maxclass" : "comment",
					"numinlets" : 1,
					"numoutlets" : 0,
					"patching_rect" : [ 292.5, 218.0, 32.0, 20.0 ],
					"text" : "1/16"
				}

			}
, 			{
				"box" : 				{
					"id" : "obj-17",
					"maxclass" : "comment",
					"numinlets" : 1,
					"numoutlets" : 0,
					"patching_rect" : [ 250.5, 218.0, 25.0, 20.0 ],
					"text" : "1/8"
				}

			}
, 			{
				"box" : 				{
					"id" : "obj-16",
					"maxclass" : "comment",
					"numinlets" : 1,
					"numoutlets" : 0,
					"patching_rect" : [ 211.5, 218.0, 25.0, 20.0 ],
					"text" : "1/4"
				}

			}
, 			{
				"box" : 				{
					"id" : "obj-12",
					"maxclass" : "message",
					"numinlets" : 2,
					"numoutlets" : 1,
					"outlettype" : [ "" ],
					"patching_rect" : [ 333.0, 240.0, 52.0, 22.0 ],
					"text" : "0.03125"
				}

			}
, 			{
				"box" : 				{
					"id" : "obj-11",
					"maxclass" : "message",
					"numinlets" : 2,
					"numoutlets" : 1,
					"outlettype" : [ "" ],
					"patching_rect" : [ 286.0, 240.0, 45.0, 22.0 ],
					"text" : "0.0625"
				}

			}
, 			{
				"box" : 				{
					"id" : "obj-10",
					"maxclass" : "message",
					"numinlets" : 2,
					"numoutlets" : 1,
					"outlettype" : [ "" ],
					"patching_rect" : [ 243.5, 240.0, 39.0, 22.0 ],
					"text" : "0.125"
				}

			}
, 			{
				"box" : 				{
					"id" : "obj-9",
					"maxclass" : "message",
					"numinlets" : 2,
					"numoutlets" : 1,
					"outlettype" : [ "" ],
					"patching_rect" : [ 208.0, 240.0, 32.0, 22.0 ],
					"text" : "0.25"
				}

			}
, 			{
				"box" : 				{
					"id" : "obj-7",
					"maxclass" : "number",
					"numinlets" : 1,
					"numoutlets" : 2,
					"outlettype" : [ "", "bang" ],
					"parameter_enable" : 0,
					"patching_rect" : [ 37.459854006767273, 164.0, 50.0, 22.0 ]
				}

			}
, 			{
				"box" : 				{
					"id" : "obj-4",
					"maxclass" : "ezdac~",
					"numinlets" : 2,
					"numoutlets" : 0,
					"patching_rect" : [ 23.0, 426.0, 45.0, 45.0 ]
				}

			}
, 			{
				"box" : 				{
					"basictuning" : 440,
					"clipheight" : 94.0,
					"data" : 					{
						"clips" : [ 							{
								"absolutepath" : "Macintosh HD:/Users/slykiddruthless/Downloads/I-85 N 2.m4a",
								"filename" : "I-85 N 2.m4a",
								"filekind" : "audiofile",
								"id" : "u420001581",
								"loop" : 0,
								"content_state" : 								{

								}

							}
 ]
					}
,
					"followglobaltempo" : 0,
					"formantcorrection" : 0,
					"id" : "obj-3",
					"maxclass" : "playlist~",
					"mode" : "basic",
					"numinlets" : 1,
					"numoutlets" : 5,
					"originallength" : [ 0.0, "ticks" ],
					"originaltempo" : 120.0,
					"outlettype" : [ "signal", "signal", "signal", "", "dictionary" ],
					"parameter_enable" : 0,
					"patching_rect" : [ 23.0, 8.0, 402.0, 94.0 ],
					"pitchcorrection" : 0,
					"quality" : "basic",
					"timestretch" : [ 0 ]
				}

			}
, 			{
				"box" : 				{
					"autosave" : 1,
					"id" : "obj-1",
					"inletInfo" : 					{
						"IOInfo" : [ 							{
								"type" : "signal",
								"index" : 1,
								"tag" : "in1",
								"comment" : ""
							}
, 							{
								"type" : "event",
								"index" : 2,
								"tag" : "in2",
								"comment" : "BPM in"
							}
, 							{
								"type" : "event",
								"index" : 3,
								"tag" : "in3",
								"comment" : "Sync Divide"
							}
, 							{
								"type" : "event",
								"index" : 4,
								"tag" : "in4",
								"comment" : "release"
							}
, 							{
								"type" : "event",
								"index" : 5,
								"tag" : "in5",
								"comment" : "Play/Pause"
							}
 ]
					}
,
					"maxclass" : "newobj",
					"numinlets" : 5,
					"numoutlets" : 2,
					"outletInfo" : 					{
						"IOInfo" : [ 							{
								"type" : "signal",
								"index" : 1,
								"tag" : "out1",
								"comment" : ""
							}
 ]
					}
,
					"outlettype" : [ "signal", "list" ],
					"patcher" : 					{
						"fileversion" : 1,
						"appversion" : 						{
							"major" : 8,
							"minor" : 5,
							"revision" : 5,
							"architecture" : "x64",
							"modernui" : 1
						}
,
						"classnamespace" : "rnbo",
						"rect" : [ 878.0, 489.0, 387.0, 480.0 ],
						"bglocked" : 0,
						"openinpresentation" : 0,
						"default_fontsize" : 12.0,
						"default_fontface" : 0,
						"default_fontname" : "Lato",
						"gridonopen" : 1,
						"gridsize" : [ 15.0, 15.0 ],
						"gridsnaponopen" : 1,
						"objectsnaponopen" : 1,
						"statusbarvisible" : 2,
						"toolbarvisible" : 1,
						"lefttoolbarpinned" : 0,
						"toptoolbarpinned" : 0,
						"righttoolbarpinned" : 0,
						"bottomtoolbarpinned" : 0,
						"toolbars_unpinned_last_save" : 0,
						"tallnewobj" : 0,
						"boxanimatetime" : 200,
						"enablehscroll" : 1,
						"enablevscroll" : 1,
						"devicewidth" : 0.0,
						"description" : "",
						"digest" : "",
						"tags" : "",
						"style" : "",
						"subpatcher_template" : "",
						"assistshowspatchername" : 0,
						"title" : "untitled",
						"boxes" : [ 							{
								"box" : 								{
									"id" : "obj-43",
									"maxclass" : "flonum",
									"numinlets" : 1,
									"numoutlets" : 1,
									"outlettype" : [ "" ],
									"parameter_enable" : 0,
									"patching_rect" : [ 226.0, 155.0, 50.0, 23.0 ],
									"rnbo_classname" : "number",
									"rnbo_extra_attributes" : 									{
										"maximum" : "<none>",
										"minimum" : "<none>",
										"preset" : 0,
										"order" : "",
										"initialFormat" : "float"
									}
,
									"rnbo_serial" : 1,
									"rnbo_uniqueid" : "number_obj-43"
								}

							}
, 							{
								"box" : 								{
									"id" : "obj-40",
									"maxclass" : "button",
									"numinlets" : 1,
									"numoutlets" : 1,
									"outlettype" : [ "bang" ],
									"parameter_enable" : 0,
									"patching_rect" : [ 117.0, 306.0, 24.0, 24.0 ],
									"rnbo_classname" : "button",
									"rnbo_serial" : 1,
									"rnbo_uniqueid" : "button_obj-40"
								}

							}
, 							{
								"box" : 								{
									"id" : "obj-39",
									"maxclass" : "message",
									"numinlets" : 2,
									"numoutlets" : 1,
									"outlettype" : [ "" ],
									"patching_rect" : [ 176.0, 280.0, 29.5, 23.0 ],
									"rnbo_classname" : "message",
									"rnbo_extra_attributes" : 									{
										"text" : ""
									}
,
									"rnbo_serial" : 1,
									"rnbo_uniqueid" : "message_obj-39",
									"text" : "5"
								}

							}
, 							{
								"box" : 								{
									"id" : "obj-34",
									"maxclass" : "flonum",
									"numinlets" : 1,
									"numoutlets" : 1,
									"outlettype" : [ "" ],
									"parameter_enable" : 0,
									"patching_rect" : [ 146.0, 394.0, 50.0, 23.0 ],
									"rnbo_classname" : "number",
									"rnbo_extra_attributes" : 									{
										"maximum" : "<none>",
										"minimum" : "<none>",
										"preset" : 0,
										"order" : "",
										"initialFormat" : "float"
									}
,
									"rnbo_serial" : 2,
									"rnbo_uniqueid" : "number_obj-34"
								}

							}
, 							{
								"box" : 								{
									"id" : "obj-30",
									"maxclass" : "button",
									"numinlets" : 1,
									"numoutlets" : 1,
									"outlettype" : [ "bang" ],
									"parameter_enable" : 0,
									"patching_rect" : [ 91.0, 306.0, 24.0, 24.0 ],
									"rnbo_classname" : "button",
									"rnbo_serial" : 2,
									"rnbo_uniqueid" : "button_obj-30"
								}

							}
, 							{
								"box" : 								{
									"id" : "obj-28",
									"maxclass" : "message",
									"numinlets" : 2,
									"numoutlets" : 1,
									"outlettype" : [ "" ],
									"patching_rect" : [ 123.5, 249.0, 29.5, 23.0 ],
									"rnbo_classname" : "message",
									"rnbo_extra_attributes" : 									{
										"text" : ""
									}
,
									"rnbo_serial" : 2,
									"rnbo_uniqueid" : "message_obj-28",
									"text" : "0"
								}

							}
, 							{
								"box" : 								{
									"id" : "obj-26",
									"maxclass" : "message",
									"numinlets" : 2,
									"numoutlets" : 1,
									"outlettype" : [ "" ],
									"patching_rect" : [ 91.0, 249.0, 29.5, 23.0 ],
									"rnbo_classname" : "message",
									"rnbo_extra_attributes" : 									{
										"text" : ""
									}
,
									"rnbo_serial" : 3,
									"rnbo_uniqueid" : "message_obj-26",
									"text" : "1"
								}

							}
, 							{
								"box" : 								{
									"id" : "obj-24",
									"maxclass" : "newobj",
									"numinlets" : 0,
									"numoutlets" : 1,
									"outlettype" : [ "" ],
									"patching_rect" : [ 103.0, 42.0, 28.0, 23.0 ],
									"rnbo_classname" : "in",
									"rnbo_extra_attributes" : 									{
										"comment" : "Play/Pause",
										"meta" : ""
									}
,
									"rnbo_serial" : 1,
									"rnbo_uniqueid" : "in_obj-24",
									"rnboinfo" : 									{
										"needsInstanceInfo" : 1,
										"argnames" : 										{
											"index" : 											{
												"attrOrProp" : 2,
												"digest" : "inlet number",
												"defaultarg" : 1,
												"isalias" : 0,
												"aliases" : [  ],
												"settable" : 1,
												"attachable" : 0,
												"isparam" : 0,
												"deprecated" : 0,
												"type" : "number",
												"mandatory" : 1
											}
,
											"comment" : 											{
												"attrOrProp" : 2,
												"digest" : "mouse over comment",
												"isalias" : 0,
												"aliases" : [  ],
												"settable" : 1,
												"attachable" : 0,
												"isparam" : 0,
												"deprecated" : 0,
												"type" : "symbol"
											}
,
											"meta" : 											{
												"attrOrProp" : 2,
												"digest" : "A JSON formatted string containing metadata for use by the exported code",
												"isalias" : 0,
												"aliases" : [  ],
												"settable" : 1,
												"attachable" : 0,
												"isparam" : 0,
												"deprecated" : 0,
												"type" : "symbol",
												"defaultValue" : "",
												"label" : "Metadata",
												"displayorder" : 3
											}

										}
,
										"inputs" : [  ],
										"outputs" : [ 											{
												"name" : "out1",
												"type" : [ "bang", "number", "list" ],
												"digest" : "value from inlet with index 5",
												"displayName" : "Play/Pause",
												"docked" : 0
											}
 ],
										"helpname" : "in",
										"aliasOf" : "in",
										"classname" : "in",
										"operator" : 0,
										"versionId" : 1219109108,
										"changesPatcherIO" : 1
									}
,
									"text" : "in 5"
								}

							}
, 							{
								"box" : 								{
									"id" : "obj-21",
									"maxclass" : "comment",
									"numinlets" : 1,
									"numoutlets" : 0,
									"patching_rect" : [ 176.0, 91.0, 77.0, 21.0 ],
									"text" : "Synch Divide"
								}

							}
, 							{
								"box" : 								{
									"id" : "obj-19",
									"maxclass" : "comment",
									"numinlets" : 1,
									"numoutlets" : 0,
									"patching_rect" : [ 120.0, 91.0, 36.0, 21.0 ],
									"text" : "BPM"
								}

							}
, 							{
								"box" : 								{
									"id" : "obj-17",
									"maxclass" : "comment",
									"numinlets" : 1,
									"numoutlets" : 0,
									"patching_rect" : [ 72.5, 91.0, 20.0, 21.0 ],
									"text" : "In"
								}

							}
, 							{
								"box" : 								{
									"id" : "obj-15",
									"maxclass" : "newobj",
									"numinlets" : 2,
									"numoutlets" : 1,
									"outlettype" : [ "" ],
									"patching_rect" : [ 124.0, 167.0, 29.5, 23.0 ],
									"rnbo_classname" : "*",
									"rnbo_extra_attributes" : 									{
										"hot" : 0
									}
,
									"rnbo_serial" : 1,
									"rnbo_uniqueid" : "*_obj-15",
									"text" : "*"
								}

							}
, 							{
								"box" : 								{
									"id" : "obj-14",
									"maxclass" : "newobj",
									"numinlets" : 2,
									"numoutlets" : 1,
									"outlettype" : [ "" ],
									"patching_rect" : [ 103.0, 199.0, 40.0, 23.0 ],
									"rnbo_classname" : "metro",
									"rnbo_extra_attributes" : 									{
										"lock" : 0.0
									}
,
									"rnbo_serial" : 1,
									"rnbo_uniqueid" : "metro_obj-14",
									"text" : "metro"
								}

							}
, 							{
								"box" : 								{
									"id" : "obj-13",
									"maxclass" : "flonum",
									"numinlets" : 1,
									"numoutlets" : 1,
									"outlettype" : [ "" ],
									"parameter_enable" : 0,
									"patching_rect" : [ 176.0, 220.0, 50.0, 23.0 ],
									"rnbo_classname" : "number",
									"rnbo_extra_attributes" : 									{
										"maximum" : "<none>",
										"minimum" : "<none>",
										"preset" : 0,
										"order" : "",
										"initialFormat" : "float"
									}
,
									"rnbo_serial" : 3,
									"rnbo_uniqueid" : "number_obj-13"
								}

							}
, 							{
								"box" : 								{
									"id" : "obj-9",
									"maxclass" : "newobj",
									"numinlets" : 0,
									"numoutlets" : 1,
									"outlettype" : [ "" ],
									"patching_rect" : [ 176.0, 179.0, 28.0, 23.0 ],
									"rnbo_classname" : "in",
									"rnbo_extra_attributes" : 									{
										"comment" : "release",
										"meta" : ""
									}
,
									"rnbo_serial" : 2,
									"rnbo_uniqueid" : "in_obj-9",
									"rnboinfo" : 									{
										"needsInstanceInfo" : 1,
										"argnames" : 										{
											"index" : 											{
												"attrOrProp" : 2,
												"digest" : "inlet number",
												"defaultarg" : 1,
												"isalias" : 0,
												"aliases" : [  ],
												"settable" : 1,
												"attachable" : 0,
												"isparam" : 0,
												"deprecated" : 0,
												"type" : "number",
												"mandatory" : 1
											}
,
											"comment" : 											{
												"attrOrProp" : 2,
												"digest" : "mouse over comment",
												"isalias" : 0,
												"aliases" : [  ],
												"settable" : 1,
												"attachable" : 0,
												"isparam" : 0,
												"deprecated" : 0,
												"type" : "symbol"
											}
,
											"meta" : 											{
												"attrOrProp" : 2,
												"digest" : "A JSON formatted string containing metadata for use by the exported code",
												"isalias" : 0,
												"aliases" : [  ],
												"settable" : 1,
												"attachable" : 0,
												"isparam" : 0,
												"deprecated" : 0,
												"type" : "symbol",
												"defaultValue" : "",
												"label" : "Metadata",
												"displayorder" : 3
											}

										}
,
										"inputs" : [  ],
										"outputs" : [ 											{
												"name" : "out1",
												"type" : [ "bang", "number", "list" ],
												"digest" : "value from inlet with index 4",
												"displayName" : "release",
												"docked" : 0
											}
 ],
										"helpname" : "in",
										"aliasOf" : "in",
										"classname" : "in",
										"operator" : 0,
										"versionId" : 1219109108,
										"changesPatcherIO" : 1
									}
,
									"text" : "in 4"
								}

							}
, 							{
								"box" : 								{
									"id" : "obj-7",
									"maxclass" : "newobj",
									"numinlets" : 1,
									"numoutlets" : 1,
									"outlettype" : [ "" ],
									"patching_rect" : [ 206.0, 280.0, 67.0, 23.0 ],
									"rnbo_classname" : "loadmess",
									"rnbo_serial" : 1,
									"rnbo_uniqueid" : "loadmess_obj-7",
									"rnboinfo" : 									{
										"needsInstanceInfo" : 1,
										"argnames" : 										{
											"input" : 											{
												"attrOrProp" : 1,
												"digest" : "Bang to trigger message.",
												"isalias" : 0,
												"aliases" : [  ],
												"settable" : 0,
												"attachable" : 0,
												"isparam" : 0,
												"deprecated" : 0,
												"inlet" : 1,
												"type" : "bang"
											}
,
											"message" : 											{
												"attrOrProp" : 1,
												"digest" : "Message when patcher is loaded.",
												"defaultarg" : 1,
												"isalias" : 0,
												"aliases" : [  ],
												"settable" : 1,
												"attachable" : 0,
												"isparam" : 0,
												"deprecated" : 0,
												"outlet" : 1,
												"type" : "list",
												"defaultValue" : ""
											}
,
											"startupbang" : 											{
												"attrOrProp" : 1,
												"digest" : "startupbang",
												"isalias" : 0,
												"aliases" : [  ],
												"attachable" : 0,
												"isparam" : 0,
												"deprecated" : 0,
												"type" : "bang"
											}

										}
,
										"inputs" : [ 											{
												"name" : "input",
												"type" : "bang",
												"digest" : "Bang to trigger message.",
												"hot" : 1,
												"docked" : 0
											}
 ],
										"outputs" : [ 											{
												"name" : "message",
												"type" : "list",
												"digest" : "Message when patcher is loaded.",
												"defaultarg" : 1,
												"docked" : 0
											}
 ],
										"helpname" : "loadmess",
										"aliasOf" : "loadmess",
										"classname" : "loadmess",
										"operator" : 0,
										"versionId" : -361086158,
										"changesPatcherIO" : 0
									}
,
									"text" : "loadmess 1"
								}

							}
, 							{
								"box" : 								{
									"id" : "obj-6",
									"maxclass" : "newobj",
									"numinlets" : 0,
									"numoutlets" : 1,
									"outlettype" : [ "" ],
									"patching_rect" : [ 200.5, 114.0, 28.0, 23.0 ],
									"rnbo_classname" : "in",
									"rnbo_extra_attributes" : 									{
										"comment" : "Sync Divide",
										"meta" : ""
									}
,
									"rnbo_serial" : 3,
									"rnbo_uniqueid" : "in_obj-6",
									"rnboinfo" : 									{
										"needsInstanceInfo" : 1,
										"argnames" : 										{
											"index" : 											{
												"attrOrProp" : 2,
												"digest" : "inlet number",
												"defaultarg" : 1,
												"isalias" : 0,
												"aliases" : [  ],
												"settable" : 1,
												"attachable" : 0,
												"isparam" : 0,
												"deprecated" : 0,
												"type" : "number",
												"mandatory" : 1
											}
,
											"comment" : 											{
												"attrOrProp" : 2,
												"digest" : "mouse over comment",
												"isalias" : 0,
												"aliases" : [  ],
												"settable" : 1,
												"attachable" : 0,
												"isparam" : 0,
												"deprecated" : 0,
												"type" : "symbol"
											}
,
											"meta" : 											{
												"attrOrProp" : 2,
												"digest" : "A JSON formatted string containing metadata for use by the exported code",
												"isalias" : 0,
												"aliases" : [  ],
												"settable" : 1,
												"attachable" : 0,
												"isparam" : 0,
												"deprecated" : 0,
												"type" : "symbol",
												"defaultValue" : "",
												"label" : "Metadata",
												"displayorder" : 3
											}

										}
,
										"inputs" : [  ],
										"outputs" : [ 											{
												"name" : "out1",
												"type" : [ "bang", "number", "list" ],
												"digest" : "value from inlet with index 3",
												"displayName" : "Sync Divide",
												"docked" : 0
											}
 ],
										"helpname" : "in",
										"aliasOf" : "in",
										"classname" : "in",
										"operator" : 0,
										"versionId" : 1219109108,
										"changesPatcherIO" : 1
									}
,
									"text" : "in 3"
								}

							}
, 							{
								"box" : 								{
									"id" : "obj-5",
									"maxclass" : "newobj",
									"numinlets" : 0,
									"numoutlets" : 1,
									"outlettype" : [ "" ],
									"patching_rect" : [ 124.0, 114.0, 28.0, 23.0 ],
									"rnbo_classname" : "in",
									"rnbo_extra_attributes" : 									{
										"comment" : "BPM in",
										"meta" : ""
									}
,
									"rnbo_serial" : 4,
									"rnbo_uniqueid" : "in_obj-5",
									"rnboinfo" : 									{
										"needsInstanceInfo" : 1,
										"argnames" : 										{
											"index" : 											{
												"attrOrProp" : 2,
												"digest" : "inlet number",
												"defaultarg" : 1,
												"isalias" : 0,
												"aliases" : [  ],
												"settable" : 1,
												"attachable" : 0,
												"isparam" : 0,
												"deprecated" : 0,
												"type" : "number",
												"mandatory" : 1
											}
,
											"comment" : 											{
												"attrOrProp" : 2,
												"digest" : "mouse over comment",
												"isalias" : 0,
												"aliases" : [  ],
												"settable" : 1,
												"attachable" : 0,
												"isparam" : 0,
												"deprecated" : 0,
												"type" : "symbol"
											}
,
											"meta" : 											{
												"attrOrProp" : 2,
												"digest" : "A JSON formatted string containing metadata for use by the exported code",
												"isalias" : 0,
												"aliases" : [  ],
												"settable" : 1,
												"attachable" : 0,
												"isparam" : 0,
												"deprecated" : 0,
												"type" : "symbol",
												"defaultValue" : "",
												"label" : "Metadata",
												"displayorder" : 3
											}

										}
,
										"inputs" : [  ],
										"outputs" : [ 											{
												"name" : "out1",
												"type" : [ "bang", "number", "list" ],
												"digest" : "value from inlet with index 2",
												"displayName" : "BPM in",
												"docked" : 0
											}
 ],
										"helpname" : "in",
										"aliasOf" : "in",
										"classname" : "in",
										"operator" : 0,
										"versionId" : 1219109108,
										"changesPatcherIO" : 1
									}
,
									"text" : "in 2"
								}

							}
, 							{
								"box" : 								{
									"id" : "obj-4",
									"maxclass" : "newobj",
									"numinlets" : 1,
									"numoutlets" : 0,
									"patching_rect" : [ 65.0, 424.0, 43.0, 23.0 ],
									"rnbo_classname" : "out~",
									"rnbo_extra_attributes" : 									{
										"comment" : "",
										"meta" : ""
									}
,
									"rnbo_serial" : 1,
									"rnbo_uniqueid" : "out~_obj-4",
									"rnboinfo" : 									{
										"needsInstanceInfo" : 1,
										"argnames" : 										{
											"in1" : 											{
												"attrOrProp" : 1,
												"digest" : "signal sent to outlet with index 1",
												"isalias" : 0,
												"aliases" : [  ],
												"settable" : 0,
												"attachable" : 0,
												"isparam" : 0,
												"deprecated" : 0,
												"inlet" : 1,
												"type" : "signal"
											}
,
											"index" : 											{
												"attrOrProp" : 2,
												"digest" : "outlet number",
												"defaultarg" : 1,
												"isalias" : 0,
												"aliases" : [  ],
												"settable" : 1,
												"attachable" : 0,
												"isparam" : 0,
												"deprecated" : 0,
												"type" : "number",
												"mandatory" : 1
											}
,
											"comment" : 											{
												"attrOrProp" : 2,
												"digest" : "mouse over comment",
												"isalias" : 0,
												"aliases" : [  ],
												"settable" : 1,
												"attachable" : 0,
												"isparam" : 0,
												"deprecated" : 0,
												"type" : "symbol"
											}
,
											"meta" : 											{
												"attrOrProp" : 2,
												"digest" : "A JSON formatted string containing metadata for use by the exported code",
												"isalias" : 0,
												"aliases" : [  ],
												"settable" : 1,
												"attachable" : 0,
												"isparam" : 0,
												"deprecated" : 0,
												"type" : "symbol",
												"defaultValue" : "",
												"label" : "Metadata",
												"displayorder" : 3
											}

										}
,
										"inputs" : [ 											{
												"name" : "in1",
												"type" : "signal",
												"digest" : "signal sent to outlet with index 1",
												"displayName" : "",
												"hot" : 1,
												"docked" : 0
											}
 ],
										"outputs" : [  ],
										"helpname" : "out~",
										"aliasOf" : "out~",
										"classname" : "out~",
										"operator" : 0,
										"versionId" : 374499139,
										"changesPatcherIO" : 1
									}
,
									"text" : "out~ 1"
								}

							}
, 							{
								"box" : 								{
									"id" : "obj-3",
									"maxclass" : "newobj",
									"numinlets" : 2,
									"numoutlets" : 1,
									"outlettype" : [ "signal" ],
									"patching_rect" : [ 65.0, 353.0, 29.5, 23.0 ],
									"rnbo_classname" : "*~",
									"rnbo_serial" : 1,
									"rnbo_uniqueid" : "*~_obj-3",
									"text" : "*~"
								}

							}
, 							{
								"box" : 								{
									"id" : "obj-2",
									"maxclass" : "newobj",
									"numinlets" : 3,
									"numoutlets" : 2,
									"outlettype" : [ "", "" ],
									"patching_rect" : [ 146.0, 311.0, 79.0, 23.0 ],
									"rnbo_classname" : "line",
									"rnbo_extra_attributes" : 									{
										"initial" : 0.0
									}
,
									"rnbo_serial" : 1,
									"rnbo_uniqueid" : "line_obj-2",
									"text" : "line"
								}

							}
, 							{
								"box" : 								{
									"id" : "obj-1",
									"maxclass" : "newobj",
									"numinlets" : 0,
									"numoutlets" : 1,
									"outlettype" : [ "signal" ],
									"patching_rect" : [ 65.0, 114.0, 35.0, 23.0 ],
									"rnbo_classname" : "in~",
									"rnbo_extra_attributes" : 									{
										"comment" : "",
										"meta" : ""
									}
,
									"rnbo_serial" : 1,
									"rnbo_uniqueid" : "in~_obj-1",
									"rnboinfo" : 									{
										"needsInstanceInfo" : 1,
										"argnames" : 										{
											"out1" : 											{
												"attrOrProp" : 1,
												"digest" : "signal from inlet with index 1",
												"isalias" : 0,
												"aliases" : [  ],
												"settable" : 0,
												"attachable" : 0,
												"isparam" : 0,
												"deprecated" : 0,
												"outlet" : 1,
												"type" : "signal"
											}
,
											"index" : 											{
												"attrOrProp" : 2,
												"digest" : "inlet number",
												"defaultarg" : 1,
												"isalias" : 0,
												"aliases" : [  ],
												"settable" : 1,
												"attachable" : 0,
												"isparam" : 0,
												"deprecated" : 0,
												"type" : "number",
												"mandatory" : 1
											}
,
											"comment" : 											{
												"attrOrProp" : 2,
												"digest" : "mouse over comment",
												"isalias" : 0,
												"aliases" : [  ],
												"settable" : 1,
												"attachable" : 0,
												"isparam" : 0,
												"deprecated" : 0,
												"type" : "symbol"
											}
,
											"meta" : 											{
												"attrOrProp" : 2,
												"digest" : "A JSON formatted string containing metadata for use by the exported code",
												"isalias" : 0,
												"aliases" : [  ],
												"settable" : 1,
												"attachable" : 0,
												"isparam" : 0,
												"deprecated" : 0,
												"type" : "symbol",
												"defaultValue" : "",
												"label" : "Metadata",
												"displayorder" : 3
											}

										}
,
										"inputs" : [  ],
										"outputs" : [ 											{
												"name" : "out1",
												"type" : "signal",
												"digest" : "signal from inlet with index 1",
												"displayName" : "",
												"docked" : 0
											}
 ],
										"helpname" : "in~",
										"aliasOf" : "in~",
										"classname" : "in~",
										"operator" : 0,
										"versionId" : -176007711,
										"changesPatcherIO" : 1
									}
,
									"text" : "in~ 1"
								}

							}
 ],
						"lines" : [ 							{
								"patchline" : 								{
									"destination" : [ "obj-3", 0 ],
									"source" : [ "obj-1", 0 ]
								}

							}
, 							{
								"patchline" : 								{
									"destination" : [ "obj-2", 1 ],
									"source" : [ "obj-13", 0 ]
								}

							}
, 							{
								"patchline" : 								{
									"destination" : [ "obj-28", 0 ],
									"midpoints" : [ 112.5, 233.0, 133.0, 233.0 ],
									"source" : [ "obj-14", 0 ]
								}

							}
, 							{
								"patchline" : 								{
									"destination" : [ "obj-14", 1 ],
									"source" : [ "obj-15", 0 ]
								}

							}
, 							{
								"patchline" : 								{
									"destination" : [ "obj-3", 1 ],
									"midpoints" : [ 155.5, 343.0, 85.0, 343.0 ],
									"order" : 1,
									"source" : [ "obj-2", 0 ]
								}

							}
, 							{
								"patchline" : 								{
									"destination" : [ "obj-34", 0 ],
									"order" : 0,
									"source" : [ "obj-2", 0 ]
								}

							}
, 							{
								"patchline" : 								{
									"destination" : [ "obj-14", 0 ],
									"source" : [ "obj-24", 0 ]
								}

							}
, 							{
								"patchline" : 								{
									"destination" : [ "obj-2", 0 ],
									"midpoints" : [ 100.5, 289.0, 155.5, 289.0 ],
									"order" : 1,
									"source" : [ "obj-26", 0 ]
								}

							}
, 							{
								"patchline" : 								{
									"destination" : [ "obj-30", 0 ],
									"midpoints" : [ 100.5, 288.5, 100.5, 288.5 ],
									"order" : 2,
									"source" : [ "obj-26", 0 ]
								}

							}
, 							{
								"patchline" : 								{
									"destination" : [ "obj-39", 0 ],
									"order" : 0,
									"source" : [ "obj-26", 0 ]
								}

							}
, 							{
								"patchline" : 								{
									"destination" : [ "obj-2", 0 ],
									"midpoints" : [ 133.0, 281.0, 155.5, 281.0 ],
									"order" : 0,
									"source" : [ "obj-28", 0 ]
								}

							}
, 							{
								"patchline" : 								{
									"destination" : [ "obj-40", 0 ],
									"order" : 1,
									"source" : [ "obj-28", 0 ]
								}

							}
, 							{
								"patchline" : 								{
									"destination" : [ "obj-4", 0 ],
									"source" : [ "obj-3", 0 ]
								}

							}
, 							{
								"patchline" : 								{
									"destination" : [ "obj-13", 0 ],
									"midpoints" : [ 100.5, 365.0, 312.0, 365.0, 312.0, 209.0, 185.5, 209.0 ],
									"source" : [ "obj-30", 0 ]
								}

							}
, 							{
								"patchline" : 								{
									"destination" : [ "obj-2", 1 ],
									"source" : [ "obj-39", 0 ]
								}

							}
, 							{
								"patchline" : 								{
									"destination" : [ "obj-39", 0 ],
									"midpoints" : [ 126.5, 354.0, 297.0, 354.0, 297.0, 269.0, 185.5, 269.0 ],
									"source" : [ "obj-40", 0 ]
								}

							}
, 							{
								"patchline" : 								{
									"destination" : [ "obj-15", 0 ],
									"source" : [ "obj-5", 0 ]
								}

							}
, 							{
								"patchline" : 								{
									"destination" : [ "obj-15", 1 ],
									"midpoints" : [ 210.0, 151.5, 144.0, 151.5 ],
									"order" : 1,
									"source" : [ "obj-6", 0 ]
								}

							}
, 							{
								"patchline" : 								{
									"destination" : [ "obj-43", 0 ],
									"order" : 0,
									"source" : [ "obj-6", 0 ]
								}

							}
, 							{
								"patchline" : 								{
									"destination" : [ "obj-2", 2 ],
									"source" : [ "obj-7", 0 ]
								}

							}
, 							{
								"patchline" : 								{
									"destination" : [ "obj-13", 0 ],
									"source" : [ "obj-9", 0 ]
								}

							}
 ],
						"default_bgcolor" : [ 0.031372549019608, 0.125490196078431, 0.211764705882353, 1.0 ],
						"color" : [ 0.929412, 0.929412, 0.352941, 1.0 ],
						"elementcolor" : [ 0.357540726661682, 0.515565991401672, 0.861786782741547, 1.0 ],
						"accentcolor" : [ 0.343034118413925, 0.506230533123016, 0.86220508813858, 1.0 ],
						"textcolor_inverse" : [ 0.968627, 0.968627, 0.968627, 1.0 ],
						"stripecolor" : [ 0.258338063955307, 0.352425158023834, 0.511919498443604, 1.0 ],
						"bgfillcolor_type" : "color",
						"bgfillcolor_color" : [ 0.031372549019608, 0.125490196078431, 0.211764705882353, 1.0 ],
						"bgfillcolor_color1" : [ 0.031372549019608, 0.125490196078431, 0.211764705882353, 1.0 ],
						"bgfillcolor_color2" : [ 0.263682, 0.004541, 0.038797, 1.0 ],
						"bgfillcolor_angle" : 270.0,
						"bgfillcolor_proportion" : 0.39,
						"bgfillcolor_autogradient" : 0.0
					}
,
					"patching_rect" : [ 23.0, 387.0, 76.0, 22.0 ],
					"rnboattrcache" : 					{

					}
,
					"rnboversion" : "1.2.1",
					"saved_attribute_attributes" : 					{
						"valueof" : 						{
							"parameter_invisible" : 1,
							"parameter_longname" : "rnbo~",
							"parameter_shortname" : "rnbo~",
							"parameter_type" : 3
						}

					}
,
					"saved_object_attributes" : 					{
						"optimization" : "O1",
						"parameter_enable" : 1,
						"uuid" : "e4b5a975-be07-11ee-a975-acde48001122"
					}
,
					"snapshot" : 					{
						"filetype" : "C74Snapshot",
						"version" : 2,
						"minorversion" : 0,
						"name" : "snapshotlist",
						"origin" : "rnbo~",
						"type" : "list",
						"subtype" : "Undefined",
						"embed" : 1,
						"snapshot" : 						{
							"__presetid" : "e4b5a975-be07-11ee-a975-acde48001122"
						}
,
						"snapshotlist" : 						{
							"current_snapshot" : 0,
							"entries" : [ 								{
									"filetype" : "C74Snapshot",
									"version" : 2,
									"minorversion" : 0,
									"name" : "untitled",
									"origin" : "e4b5a975-be07-11ee-a975-acde48001122",
									"type" : "rnbo",
									"subtype" : "",
									"embed" : 0,
									"snapshot" : 									{
										"__presetid" : "e4b5a975-be07-11ee-a975-acde48001122"
									}
,
									"fileref" : 									{
										"name" : "untitled",
										"filename" : "untitled_20240128.maxsnap",
										"filepath" : "~/Documents/Max 8/Snapshots",
										"filepos" : -1,
										"snapshotfileid" : "f9471f391e97c77b3ecc3b72cb388045"
									}

								}
 ]
						}

					}
,
					"text" : "rnbo~",
					"varname" : "rnbo~"
				}

			}
 ],
		"lines" : [ 			{
				"patchline" : 				{
					"destination" : [ "obj-4", 1 ],
					"order" : 0,
					"source" : [ "obj-1", 0 ]
				}

			}
, 			{
				"patchline" : 				{
					"destination" : [ "obj-4", 0 ],
					"order" : 1,
					"source" : [ "obj-1", 0 ]
				}

			}
, 			{
				"patchline" : 				{
					"destination" : [ "obj-1", 2 ],
					"midpoints" : [ 253.0, 296.0, 61.0, 296.0 ],
					"source" : [ "obj-10", 0 ]
				}

			}
, 			{
				"patchline" : 				{
					"destination" : [ "obj-1", 2 ],
					"midpoints" : [ 295.5, 296.0, 61.0, 296.0 ],
					"source" : [ "obj-11", 0 ]
				}

			}
, 			{
				"patchline" : 				{
					"destination" : [ "obj-1", 2 ],
					"midpoints" : [ 342.5, 296.0, 61.0, 296.0 ],
					"source" : [ "obj-12", 0 ]
				}

			}
, 			{
				"patchline" : 				{
					"destination" : [ "obj-1", 3 ],
					"midpoints" : [ 157.5, 377.5, 75.25, 377.5 ],
					"source" : [ "obj-21", 0 ]
				}

			}
, 			{
				"patchline" : 				{
					"destination" : [ "obj-1", 4 ],
					"source" : [ "obj-27", 0 ]
				}

			}
, 			{
				"patchline" : 				{
					"destination" : [ "obj-1", 0 ],
					"source" : [ "obj-3", 0 ]
				}

			}
, 			{
				"patchline" : 				{
					"destination" : [ "obj-1", 2 ],
					"midpoints" : [ 153.5, 296.09302282333374, 61.0, 296.09302282333374 ],
					"source" : [ "obj-36", 0 ]
				}

			}
, 			{
				"patchline" : 				{
					"destination" : [ "obj-1", 2 ],
					"midpoints" : [ 186.0, 296.09302282333374, 61.0, 296.09302282333374 ],
					"source" : [ "obj-37", 0 ]
				}

			}
, 			{
				"patchline" : 				{
					"destination" : [ "obj-36", 0 ],
					"source" : [ "obj-38", 0 ]
				}

			}
, 			{
				"patchline" : 				{
					"destination" : [ "obj-21", 0 ],
					"source" : [ "obj-39", 0 ]
				}

			}
, 			{
				"patchline" : 				{
					"destination" : [ "obj-7", 0 ],
					"source" : [ "obj-40", 0 ]
				}

			}
, 			{
				"patchline" : 				{
					"destination" : [ "obj-1", 1 ],
					"midpoints" : [ 46.959854006767273, 286.0, 46.75, 286.0 ],
					"source" : [ "obj-7", 0 ]
				}

			}
, 			{
				"patchline" : 				{
					"destination" : [ "obj-1", 2 ],
					"midpoints" : [ 217.5, 296.0, 61.0, 296.0 ],
					"source" : [ "obj-9", 0 ]
				}

			}
 ],
		"parameters" : 		{
			"obj-1" : [ "rnbo~", "rnbo~", 0 ],
			"parameterbanks" : 			{
				"0" : 				{
					"index" : 0,
					"name" : "",
					"parameters" : [ "-", "-", "-", "-", "-", "-", "-", "-" ]
				}

			}
,
			"inherited_shortname" : 1
		}
,
		"dependency_cache" : [ 			{
				"name" : "I-85 N 2.m4a",
				"bootpath" : "~/Downloads",
				"patcherrelativepath" : "../../../../Downloads",
				"type" : "M4a",
				"implicit" : 1
			}
, 			{
				"name" : "untitled_20240128.maxsnap",
				"bootpath" : "~/Documents/Max 8/Snapshots",
				"patcherrelativepath" : "../../../../Documents/Max 8/Snapshots",
				"type" : "mx@s",
				"implicit" : 1
			}
 ],
		"autosave" : 0
	}

}
