{
	"patcher" : 	{
		"fileversion" : 1,
		"appversion" : 		{
			"major" : 8,
			"minor" : 5,
			"revision" : 6,
			"architecture" : "x64",
			"modernui" : 1
		}
,
		"classnamespace" : "box",
		"rect" : [ 66.0, 149.0, 640.0, 480.0 ],
		"bglocked" : 0,
		"openinpresentation" : 0,
		"default_fontsize" : 12.0,
		"default_fontface" : 0,
		"default_fontname" : "Arial",
		"gridonopen" : 1,
		"gridsize" : [ 15.0, 15.0 ],
		"gridsnaponopen" : 1,
		"objectsnaponopen" : 1,
		"statusbarvisible" : 2,
		"toolbarvisible" : 1,
		"lefttoolbarpinned" : 0,
		"toptoolbarpinned" : 0,
		"righttoolbarpinned" : 0,
		"bottomtoolbarpinned" : 0,
		"toolbars_unpinned_last_save" : 0,
		"tallnewobj" : 0,
		"boxanimatetime" : 200,
		"enablehscroll" : 1,
		"enablevscroll" : 1,
		"devicewidth" : 0.0,
		"description" : "",
		"digest" : "",
		"tags" : "",
		"style" : "",
		"subpatcher_template" : "",
		"assistshowspatchername" : 0,
		"boxes" : [ 			{
				"box" : 				{
					"autosave" : 1,
					"id" : "obj-1",
					"inletInfo" : 					{
						"IOInfo" : [  ]
					}
,
					"maxclass" : "newobj",
					"numinlets" : 1,
					"numoutlets" : 1,
					"outletInfo" : 					{
						"IOInfo" : [  ]
					}
,
					"outlettype" : [ "list" ],
					"patcher" : 					{
						"fileversion" : 1,
						"appversion" : 						{
							"major" : 8,
							"minor" : 5,
							"revision" : 6,
							"architecture" : "x64",
							"modernui" : 1
						}
,
						"classnamespace" : "rnbo",
						"rect" : [ 83.0, 131.0, 640.0, 480.0 ],
						"bglocked" : 0,
						"openinpresentation" : 0,
						"default_fontsize" : 12.0,
						"default_fontface" : 0,
						"default_fontname" : "Lato",
						"gridonopen" : 1,
						"gridsize" : [ 15.0, 15.0 ],
						"gridsnaponopen" : 1,
						"objectsnaponopen" : 1,
						"statusbarvisible" : 2,
						"toolbarvisible" : 1,
						"lefttoolbarpinned" : 0,
						"toptoolbarpinned" : 0,
						"righttoolbarpinned" : 0,
						"bottomtoolbarpinned" : 0,
						"toolbars_unpinned_last_save" : 0,
						"tallnewobj" : 0,
						"boxanimatetime" : 200,
						"enablehscroll" : 1,
						"enablevscroll" : 1,
						"devicewidth" : 0.0,
						"description" : "",
						"digest" : "",
						"tags" : "",
						"style" : "",
						"subpatcher_template" : "",
						"assistshowspatchername" : 0,
						"title" : "untitled",
						"boxes" : [ 							{
								"box" : 								{
									"genpatcher" : 									{
										"patcher" : 										{
											"fileversion" : 1,
											"appversion" : 											{
												"major" : 8,
												"minor" : 5,
												"revision" : 6,
												"architecture" : "x64",
												"modernui" : 1
											}
,
											"classnamespace" : "dsp.gen",
											"rect" : [ 1123.0, 87.0, 522.0, 397.0 ],
											"bglocked" : 0,
											"openinpresentation" : 0,
											"default_fontsize" : 12.0,
											"default_fontface" : 0,
											"default_fontname" : "Arial",
											"gridonopen" : 1,
											"gridsize" : [ 15.0, 15.0 ],
											"gridsnaponopen" : 1,
											"objectsnaponopen" : 1,
											"statusbarvisible" : 2,
											"toolbarvisible" : 1,
											"lefttoolbarpinned" : 0,
											"toptoolbarpinned" : 0,
											"righttoolbarpinned" : 0,
											"bottomtoolbarpinned" : 0,
											"toolbars_unpinned_last_save" : 0,
											"tallnewobj" : 0,
											"boxanimatetime" : 200,
											"enablehscroll" : 1,
											"enablevscroll" : 1,
											"devicewidth" : 0.0,
											"description" : "",
											"digest" : "",
											"tags" : "",
											"style" : "",
											"subpatcher_template" : "",
											"assistshowspatchername" : 0,
											"boxes" : [ 												{
													"box" : 													{
														"maxclass" : "newobj",
														"text" : "gen MixingMatrix",
														"id" : "obj-14",
														"numinlets" : 4,
														"numoutlets" : 4,
														"patching_rect" : [ 126.0, 278.0, 99.0, 22.0 ],
														"outlettype" : [ "", "", "", "" ],
														"patcher" : 														{
															"fileversion" : 1,
															"appversion" : 															{
																"major" : 8,
																"minor" : 5,
																"revision" : 6,
																"architecture" : "x64",
																"modernui" : 1
															}
,
															"classnamespace" : "dsp.gen",
															"rect" : [ 1014.0, 538.0, 600.0, 450.0 ],
															"bglocked" : 0,
															"openinpresentation" : 0,
															"default_fontsize" : 12.0,
															"default_fontface" : 0,
															"default_fontname" : "Arial",
															"gridonopen" : 1,
															"gridsize" : [ 15.0, 15.0 ],
															"gridsnaponopen" : 1,
															"objectsnaponopen" : 1,
															"statusbarvisible" : 2,
															"toolbarvisible" : 1,
															"lefttoolbarpinned" : 0,
															"toptoolbarpinned" : 0,
															"righttoolbarpinned" : 0,
															"bottomtoolbarpinned" : 0,
															"toolbars_unpinned_last_save" : 0,
															"tallnewobj" : 0,
															"boxanimatetime" : 200,
															"enablehscroll" : 1,
															"enablevscroll" : 1,
															"devicewidth" : 0.0,
															"description" : "",
															"digest" : "",
															"tags" : "",
															"style" : "",
															"subpatcher_template" : "",
															"assistshowspatchername" : 0,
															"boxes" : [ 																{
																	"box" : 																	{
																		"maxclass" : "newobj",
																		"text" : "-",
																		"id" : "obj-15",
																		"numinlets" : 2,
																		"numoutlets" : 1,
																		"patching_rect" : [ 283.0, 145.0, 29.5, 22.0 ],
																		"outlettype" : [ "" ]
																	}

																}
, 																{
																	"box" : 																	{
																		"maxclass" : "newobj",
																		"text" : "* -1",
																		"id" : "obj-14",
																		"numinlets" : 1,
																		"numoutlets" : 1,
																		"patching_rect" : [ 203.0, 243.0, 27.0, 22.0 ],
																		"outlettype" : [ "" ]
																	}

																}
, 																{
																	"box" : 																	{
																		"maxclass" : "newobj",
																		"text" : "* -1",
																		"id" : "obj-13",
																		"numinlets" : 1,
																		"numoutlets" : 1,
																		"patching_rect" : [ 123.0, 243.0, 27.0, 22.0 ],
																		"outlettype" : [ "" ]
																	}

																}
, 																{
																	"box" : 																	{
																		"maxclass" : "newobj",
																		"text" : "+",
																		"id" : "obj-12",
																		"numinlets" : 2,
																		"numoutlets" : 1,
																		"patching_rect" : [ 272.5, 66.0, 29.5, 22.0 ],
																		"outlettype" : [ "" ]
																	}

																}
, 																{
																	"box" : 																	{
																		"maxclass" : "newobj",
																		"text" : "+",
																		"id" : "obj-11",
																		"numinlets" : 2,
																		"numoutlets" : 1,
																		"patching_rect" : [ 50.0, 66.0, 29.5, 22.0 ],
																		"outlettype" : [ "" ]
																	}

																}
, 																{
																	"box" : 																	{
																		"maxclass" : "newobj",
																		"text" : "in 3",
																		"id" : "obj-9",
																		"numinlets" : 0,
																		"numoutlets" : 1,
																		"patching_rect" : [ 203.0, 14.0, 28.0, 22.0 ],
																		"outlettype" : [ "" ]
																	}

																}
, 																{
																	"box" : 																	{
																		"maxclass" : "newobj",
																		"text" : "in 4",
																		"id" : "obj-10",
																		"numinlets" : 0,
																		"numoutlets" : 1,
																		"patching_rect" : [ 283.0, 14.0, 28.0, 22.0 ],
																		"outlettype" : [ "" ]
																	}

																}
, 																{
																	"box" : 																	{
																		"maxclass" : "newobj",
																		"text" : "out 4",
																		"id" : "obj-7",
																		"numinlets" : 1,
																		"numoutlets" : 0,
																		"patching_rect" : [ 283.0, 416.0, 35.0, 22.0 ]
																	}

																}
, 																{
																	"box" : 																	{
																		"maxclass" : "newobj",
																		"text" : "out 3",
																		"id" : "obj-6",
																		"numinlets" : 1,
																		"numoutlets" : 0,
																		"patching_rect" : [ 203.0, 416.0, 35.0, 22.0 ]
																	}

																}
, 																{
																	"box" : 																	{
																		"maxclass" : "newobj",
																		"text" : "out 2",
																		"id" : "obj-5",
																		"numinlets" : 1,
																		"numoutlets" : 0,
																		"patching_rect" : [ 123.0, 416.0, 35.0, 22.0 ]
																	}

																}
, 																{
																	"box" : 																	{
																		"maxclass" : "newobj",
																		"text" : "in 1",
																		"id" : "obj-1",
																		"numinlets" : 0,
																		"numoutlets" : 1,
																		"patching_rect" : [ 50.0, 14.0, 28.0, 22.0 ],
																		"outlettype" : [ "" ]
																	}

																}
, 																{
																	"box" : 																	{
																		"maxclass" : "newobj",
																		"text" : "in 2",
																		"id" : "obj-2",
																		"numinlets" : 0,
																		"numoutlets" : 1,
																		"patching_rect" : [ 123.0, 14.0, 28.0, 22.0 ],
																		"outlettype" : [ "" ]
																	}

																}
, 																{
																	"box" : 																	{
																		"maxclass" : "newobj",
																		"text" : "out 1",
																		"id" : "obj-4",
																		"numinlets" : 1,
																		"numoutlets" : 0,
																		"patching_rect" : [ 50.0, 416.0, 35.0, 22.0 ]
																	}

																}
 ],
															"lines" : [ 																{
																	"patchline" : 																	{
																		"source" : [ "obj-12", 0 ],
																		"destination" : [ "obj-4", 0 ],
																		"midpoints" : [ 282.0, 117.024822413921356, 59.5, 117.024822413921356 ],
																		"order" : 2
																	}

																}
, 																{
																	"patchline" : 																	{
																		"source" : [ "obj-11", 0 ],
																		"destination" : [ "obj-4", 0 ],
																		"midpoints" : [ 59.5, 251.5, 59.5, 251.5 ],
																		"order" : 2
																	}

																}
, 																{
																	"patchline" : 																	{
																		"source" : [ "obj-13", 0 ],
																		"destination" : [ "obj-5", 0 ]
																	}

																}
, 																{
																	"patchline" : 																	{
																		"source" : [ "obj-14", 0 ],
																		"destination" : [ "obj-6", 0 ]
																	}

																}
, 																{
																	"patchline" : 																	{
																		"source" : [ "obj-15", 0 ],
																		"destination" : [ "obj-7", 0 ],
																		"order" : 0
																	}

																}
, 																{
																	"patchline" : 																	{
																		"source" : [ "obj-15", 0 ],
																		"destination" : [ "obj-14", 0 ],
																		"midpoints" : [ 292.5, 204.5, 212.5, 204.5 ],
																		"order" : 1
																	}

																}
, 																{
																	"patchline" : 																	{
																		"source" : [ "obj-12", 0 ],
																		"destination" : [ "obj-13", 0 ],
																		"midpoints" : [ 282.0, 97.624112069606781, 132.5, 97.624112069606781 ],
																		"order" : 1
																	}

																}
, 																{
																	"patchline" : 																	{
																		"source" : [ "obj-11", 0 ],
																		"destination" : [ "obj-13", 0 ],
																		"midpoints" : [ 59.5, 165.0, 132.5, 165.0 ],
																		"order" : 1
																	}

																}
, 																{
																	"patchline" : 																	{
																		"source" : [ "obj-11", 0 ],
																		"destination" : [ "obj-15", 0 ],
																		"midpoints" : [ 59.5, 137.985816061496735, 292.5, 137.985816061496735 ],
																		"order" : 0
																	}

																}
, 																{
																	"patchline" : 																	{
																		"source" : [ "obj-12", 0 ],
																		"destination" : [ "obj-15", 1 ],
																		"midpoints" : [ 282.0, 108.907801270484924, 303.0, 108.907801270484924 ],
																		"order" : 0
																	}

																}
, 																{
																	"patchline" : 																	{
																		"source" : [ "obj-10", 0 ],
																		"destination" : [ "obj-12", 1 ]
																	}

																}
, 																{
																	"patchline" : 																	{
																		"source" : [ "obj-9", 0 ],
																		"destination" : [ "obj-11", 1 ],
																		"midpoints" : [ 212.5, 50.5, 70.0, 50.5 ]
																	}

																}
, 																{
																	"patchline" : 																	{
																		"source" : [ "obj-2", 0 ],
																		"destination" : [ "obj-12", 0 ],
																		"midpoints" : [ 132.5, 50.5, 282.0, 50.5 ]
																	}

																}
, 																{
																	"patchline" : 																	{
																		"source" : [ "obj-1", 0 ],
																		"destination" : [ "obj-11", 0 ]
																	}

																}
 ]
														}

													}

												}
, 												{
													"box" : 													{
														"maxclass" : "newobj",
														"text" : "gen @title FBCF",
														"id" : "obj-13",
														"numinlets" : 1,
														"numoutlets" : 1,
														"patching_rect" : [ 319.0, 223.0, 97.0, 22.0 ],
														"outlettype" : [ "" ],
														"patcher" : 														{
															"fileversion" : 1,
															"appversion" : 															{
																"major" : 8,
																"minor" : 5,
																"revision" : 6,
																"architecture" : "x64",
																"modernui" : 1
															}
,
															"classnamespace" : "dsp.gen",
															"rect" : [ 228.0, 330.0, 600.0, 450.0 ],
															"bglocked" : 0,
															"openinpresentation" : 0,
															"default_fontsize" : 12.0,
															"default_fontface" : 0,
															"default_fontname" : "Arial",
															"gridonopen" : 1,
															"gridsize" : [ 15.0, 15.0 ],
															"gridsnaponopen" : 1,
															"objectsnaponopen" : 1,
															"statusbarvisible" : 2,
															"toolbarvisible" : 1,
															"lefttoolbarpinned" : 0,
															"toptoolbarpinned" : 0,
															"righttoolbarpinned" : 0,
															"bottomtoolbarpinned" : 0,
															"toolbars_unpinned_last_save" : 0,
															"tallnewobj" : 0,
															"boxanimatetime" : 200,
															"enablehscroll" : 1,
															"enablevscroll" : 1,
															"devicewidth" : 0.0,
															"description" : "",
															"digest" : "",
															"tags" : "",
															"style" : "",
															"subpatcher_template" : "",
															"assistshowspatchername" : 0,
															"boxes" : [ 																{
																	"box" : 																	{
																		"maxclass" : "newobj",
																		"text" : "* 0.733",
																		"id" : "obj-8",
																		"numinlets" : 1,
																		"numoutlets" : 1,
																		"patching_rect" : [ 49.0, 168.0, 47.0, 22.0 ],
																		"outlettype" : [ "" ]
																	}

																}
, 																{
																	"box" : 																	{
																		"maxclass" : "newobj",
																		"text" : "* -1",
																		"id" : "obj-7",
																		"numinlets" : 1,
																		"numoutlets" : 1,
																		"patching_rect" : [ 132.0, 168.0, 27.0, 22.0 ],
																		"outlettype" : [ "" ]
																	}

																}
, 																{
																	"box" : 																	{
																		"maxclass" : "newobj",
																		"text" : "delay 2251",
																		"id" : "obj-6",
																		"numinlets" : 2,
																		"numoutlets" : 1,
																		"patching_rect" : [ 132.0, 114.0, 67.0, 22.0 ],
																		"outlettype" : [ "" ]
																	}

																}
, 																{
																	"box" : 																	{
																		"maxclass" : "newobj",
																		"text" : "+",
																		"id" : "obj-5",
																		"numinlets" : 2,
																		"numoutlets" : 1,
																		"patching_rect" : [ 49.0, 114.0, 29.5, 22.0 ],
																		"outlettype" : [ "" ]
																	}

																}
, 																{
																	"box" : 																	{
																		"maxclass" : "newobj",
																		"text" : "in 1",
																		"id" : "obj-1",
																		"numinlets" : 0,
																		"numoutlets" : 1,
																		"patching_rect" : [ 49.0, 47.0, 28.0, 22.0 ],
																		"outlettype" : [ "" ]
																	}

																}
, 																{
																	"box" : 																	{
																		"maxclass" : "newobj",
																		"text" : "out 1",
																		"id" : "obj-4",
																		"numinlets" : 1,
																		"numoutlets" : 0,
																		"patching_rect" : [ 49.0, 227.0, 35.0, 22.0 ]
																	}

																}
 ],
															"lines" : [ 																{
																	"patchline" : 																	{
																		"source" : [ "obj-6", 0 ],
																		"destination" : [ "obj-7", 0 ]
																	}

																}
, 																{
																	"patchline" : 																	{
																		"source" : [ "obj-8", 0 ],
																		"destination" : [ "obj-6", 0 ],
																		"midpoints" : [ 58.5, 200.0, 105.0, 200.0, 105.0, 103.0, 141.5, 103.0 ],
																		"order" : 0
																	}

																}
, 																{
																	"patchline" : 																	{
																		"source" : [ "obj-8", 0 ],
																		"destination" : [ "obj-4", 0 ],
																		"order" : 1
																	}

																}
, 																{
																	"patchline" : 																	{
																		"source" : [ "obj-5", 0 ],
																		"destination" : [ "obj-8", 0 ]
																	}

																}
, 																{
																	"patchline" : 																	{
																		"source" : [ "obj-1", 0 ],
																		"destination" : [ "obj-5", 0 ]
																	}

																}
, 																{
																	"patchline" : 																	{
																		"source" : [ "obj-7", 0 ],
																		"destination" : [ "obj-5", 1 ],
																		"midpoints" : [ 141.5, 200.0, 105.25, 200.0, 105.25, 103.0, 69.0, 103.0 ]
																	}

																}
 ]
														}

													}

												}
, 												{
													"box" : 													{
														"maxclass" : "newobj",
														"text" : "gen @title FBCF",
														"id" : "obj-12",
														"numinlets" : 1,
														"numoutlets" : 1,
														"patching_rect" : [ 218.0, 223.0, 97.0, 22.0 ],
														"outlettype" : [ "" ],
														"patcher" : 														{
															"fileversion" : 1,
															"appversion" : 															{
																"major" : 8,
																"minor" : 5,
																"revision" : 6,
																"architecture" : "x64",
																"modernui" : 1
															}
,
															"classnamespace" : "dsp.gen",
															"rect" : [ 228.0, 330.0, 600.0, 450.0 ],
															"bglocked" : 0,
															"openinpresentation" : 0,
															"default_fontsize" : 12.0,
															"default_fontface" : 0,
															"default_fontname" : "Arial",
															"gridonopen" : 1,
															"gridsize" : [ 15.0, 15.0 ],
															"gridsnaponopen" : 1,
															"objectsnaponopen" : 1,
															"statusbarvisible" : 2,
															"toolbarvisible" : 1,
															"lefttoolbarpinned" : 0,
															"toptoolbarpinned" : 0,
															"righttoolbarpinned" : 0,
															"bottomtoolbarpinned" : 0,
															"toolbars_unpinned_last_save" : 0,
															"tallnewobj" : 0,
															"boxanimatetime" : 200,
															"enablehscroll" : 1,
															"enablevscroll" : 1,
															"devicewidth" : 0.0,
															"description" : "",
															"digest" : "",
															"tags" : "",
															"style" : "",
															"subpatcher_template" : "",
															"assistshowspatchername" : 0,
															"boxes" : [ 																{
																	"box" : 																	{
																		"maxclass" : "newobj",
																		"text" : "* 0.753",
																		"id" : "obj-8",
																		"numinlets" : 1,
																		"numoutlets" : 1,
																		"patching_rect" : [ 49.0, 168.0, 47.0, 22.0 ],
																		"outlettype" : [ "" ]
																	}

																}
, 																{
																	"box" : 																	{
																		"maxclass" : "newobj",
																		"text" : "* -1",
																		"id" : "obj-7",
																		"numinlets" : 1,
																		"numoutlets" : 1,
																		"patching_rect" : [ 132.0, 168.0, 27.0, 22.0 ],
																		"outlettype" : [ "" ]
																	}

																}
, 																{
																	"box" : 																	{
																		"maxclass" : "newobj",
																		"text" : "delay 2053",
																		"id" : "obj-6",
																		"numinlets" : 2,
																		"numoutlets" : 1,
																		"patching_rect" : [ 132.0, 114.0, 67.0, 22.0 ],
																		"outlettype" : [ "" ]
																	}

																}
, 																{
																	"box" : 																	{
																		"maxclass" : "newobj",
																		"text" : "+",
																		"id" : "obj-5",
																		"numinlets" : 2,
																		"numoutlets" : 1,
																		"patching_rect" : [ 49.0, 114.0, 29.5, 22.0 ],
																		"outlettype" : [ "" ]
																	}

																}
, 																{
																	"box" : 																	{
																		"maxclass" : "newobj",
																		"text" : "in 1",
																		"id" : "obj-1",
																		"numinlets" : 0,
																		"numoutlets" : 1,
																		"patching_rect" : [ 49.0, 47.0, 28.0, 22.0 ],
																		"outlettype" : [ "" ]
																	}

																}
, 																{
																	"box" : 																	{
																		"maxclass" : "newobj",
																		"text" : "out 1",
																		"id" : "obj-4",
																		"numinlets" : 1,
																		"numoutlets" : 0,
																		"patching_rect" : [ 49.0, 227.0, 35.0, 22.0 ]
																	}

																}
 ],
															"lines" : [ 																{
																	"patchline" : 																	{
																		"source" : [ "obj-5", 0 ],
																		"destination" : [ "obj-8", 0 ]
																	}

																}
, 																{
																	"patchline" : 																	{
																		"source" : [ "obj-8", 0 ],
																		"destination" : [ "obj-4", 0 ],
																		"order" : 1
																	}

																}
, 																{
																	"patchline" : 																	{
																		"source" : [ "obj-8", 0 ],
																		"destination" : [ "obj-6", 0 ],
																		"midpoints" : [ 58.5, 200.0, 105.0, 200.0, 105.0, 103.0, 141.5, 103.0 ],
																		"order" : 0
																	}

																}
, 																{
																	"patchline" : 																	{
																		"source" : [ "obj-6", 0 ],
																		"destination" : [ "obj-7", 0 ]
																	}

																}
, 																{
																	"patchline" : 																	{
																		"source" : [ "obj-7", 0 ],
																		"destination" : [ "obj-5", 1 ],
																		"midpoints" : [ 141.5, 200.0, 105.25, 200.0, 105.25, 103.0, 69.0, 103.0 ]
																	}

																}
, 																{
																	"patchline" : 																	{
																		"source" : [ "obj-1", 0 ],
																		"destination" : [ "obj-5", 0 ]
																	}

																}
 ]
														}

													}

												}
, 												{
													"box" : 													{
														"maxclass" : "newobj",
														"text" : "gen @title FBCF",
														"id" : "obj-11",
														"numinlets" : 1,
														"numoutlets" : 1,
														"patching_rect" : [ 117.0, 223.0, 97.0, 22.0 ],
														"outlettype" : [ "" ],
														"patcher" : 														{
															"fileversion" : 1,
															"appversion" : 															{
																"major" : 8,
																"minor" : 5,
																"revision" : 6,
																"architecture" : "x64",
																"modernui" : 1
															}
,
															"classnamespace" : "dsp.gen",
															"rect" : [ 228.0, 330.0, 600.0, 450.0 ],
															"bglocked" : 0,
															"openinpresentation" : 0,
															"default_fontsize" : 12.0,
															"default_fontface" : 0,
															"default_fontname" : "Arial",
															"gridonopen" : 1,
															"gridsize" : [ 15.0, 15.0 ],
															"gridsnaponopen" : 1,
															"objectsnaponopen" : 1,
															"statusbarvisible" : 2,
															"toolbarvisible" : 1,
															"lefttoolbarpinned" : 0,
															"toptoolbarpinned" : 0,
															"righttoolbarpinned" : 0,
															"bottomtoolbarpinned" : 0,
															"toolbars_unpinned_last_save" : 0,
															"tallnewobj" : 0,
															"boxanimatetime" : 200,
															"enablehscroll" : 1,
															"enablevscroll" : 1,
															"devicewidth" : 0.0,
															"description" : "",
															"digest" : "",
															"tags" : "",
															"style" : "",
															"subpatcher_template" : "",
															"assistshowspatchername" : 0,
															"boxes" : [ 																{
																	"box" : 																	{
																		"maxclass" : "newobj",
																		"text" : "* 0.802",
																		"id" : "obj-8",
																		"numinlets" : 1,
																		"numoutlets" : 1,
																		"patching_rect" : [ 49.0, 168.0, 47.0, 22.0 ],
																		"outlettype" : [ "" ]
																	}

																}
, 																{
																	"box" : 																	{
																		"maxclass" : "newobj",
																		"text" : "* -1",
																		"id" : "obj-7",
																		"numinlets" : 1,
																		"numoutlets" : 1,
																		"patching_rect" : [ 132.0, 168.0, 27.0, 22.0 ],
																		"outlettype" : [ "" ]
																	}

																}
, 																{
																	"box" : 																	{
																		"maxclass" : "newobj",
																		"text" : "delay 1601",
																		"id" : "obj-6",
																		"numinlets" : 2,
																		"numoutlets" : 1,
																		"patching_rect" : [ 132.0, 114.0, 67.0, 22.0 ],
																		"outlettype" : [ "" ]
																	}

																}
, 																{
																	"box" : 																	{
																		"maxclass" : "newobj",
																		"text" : "+",
																		"id" : "obj-5",
																		"numinlets" : 2,
																		"numoutlets" : 1,
																		"patching_rect" : [ 49.0, 114.0, 29.5, 22.0 ],
																		"outlettype" : [ "" ]
																	}

																}
, 																{
																	"box" : 																	{
																		"maxclass" : "newobj",
																		"text" : "in 1",
																		"id" : "obj-1",
																		"numinlets" : 0,
																		"numoutlets" : 1,
																		"patching_rect" : [ 49.0, 47.0, 28.0, 22.0 ],
																		"outlettype" : [ "" ]
																	}

																}
, 																{
																	"box" : 																	{
																		"maxclass" : "newobj",
																		"text" : "out 1",
																		"id" : "obj-4",
																		"numinlets" : 1,
																		"numoutlets" : 0,
																		"patching_rect" : [ 49.0, 227.0, 35.0, 22.0 ]
																	}

																}
 ],
															"lines" : [ 																{
																	"patchline" : 																	{
																		"source" : [ "obj-6", 0 ],
																		"destination" : [ "obj-7", 0 ]
																	}

																}
, 																{
																	"patchline" : 																	{
																		"source" : [ "obj-8", 0 ],
																		"destination" : [ "obj-6", 0 ],
																		"midpoints" : [ 58.5, 200.0, 105.0, 200.0, 105.0, 103.0, 141.5, 103.0 ],
																		"order" : 0
																	}

																}
, 																{
																	"patchline" : 																	{
																		"source" : [ "obj-8", 0 ],
																		"destination" : [ "obj-4", 0 ],
																		"order" : 1
																	}

																}
, 																{
																	"patchline" : 																	{
																		"source" : [ "obj-5", 0 ],
																		"destination" : [ "obj-8", 0 ]
																	}

																}
, 																{
																	"patchline" : 																	{
																		"source" : [ "obj-1", 0 ],
																		"destination" : [ "obj-5", 0 ]
																	}

																}
, 																{
																	"patchline" : 																	{
																		"source" : [ "obj-7", 0 ],
																		"destination" : [ "obj-5", 1 ],
																		"midpoints" : [ 141.5, 200.0, 105.25, 200.0, 105.25, 103.0, 69.0, 103.0 ]
																	}

																}
 ]
														}

													}

												}
, 												{
													"box" : 													{
														"maxclass" : "newobj",
														"text" : "gen @title FBCF",
														"id" : "obj-10",
														"numinlets" : 1,
														"numoutlets" : 1,
														"patching_rect" : [ 16.0, 223.0, 97.0, 22.0 ],
														"outlettype" : [ "" ],
														"patcher" : 														{
															"fileversion" : 1,
															"appversion" : 															{
																"major" : 8,
																"minor" : 5,
																"revision" : 6,
																"architecture" : "x64",
																"modernui" : 1
															}
,
															"classnamespace" : "dsp.gen",
															"rect" : [ 228.0, 330.0, 600.0, 450.0 ],
															"bglocked" : 0,
															"openinpresentation" : 0,
															"default_fontsize" : 12.0,
															"default_fontface" : 0,
															"default_fontname" : "Arial",
															"gridonopen" : 1,
															"gridsize" : [ 15.0, 15.0 ],
															"gridsnaponopen" : 1,
															"objectsnaponopen" : 1,
															"statusbarvisible" : 2,
															"toolbarvisible" : 1,
															"lefttoolbarpinned" : 0,
															"toptoolbarpinned" : 0,
															"righttoolbarpinned" : 0,
															"bottomtoolbarpinned" : 0,
															"toolbars_unpinned_last_save" : 0,
															"tallnewobj" : 0,
															"boxanimatetime" : 200,
															"enablehscroll" : 1,
															"enablevscroll" : 1,
															"devicewidth" : 0.0,
															"description" : "",
															"digest" : "",
															"tags" : "",
															"style" : "",
															"subpatcher_template" : "",
															"assistshowspatchername" : 0,
															"boxes" : [ 																{
																	"box" : 																	{
																		"maxclass" : "newobj",
																		"text" : "* 0.773",
																		"id" : "obj-8",
																		"numinlets" : 1,
																		"numoutlets" : 1,
																		"patching_rect" : [ 49.0, 168.0, 47.0, 22.0 ],
																		"outlettype" : [ "" ]
																	}

																}
, 																{
																	"box" : 																	{
																		"maxclass" : "newobj",
																		"text" : "* -1",
																		"id" : "obj-7",
																		"numinlets" : 1,
																		"numoutlets" : 1,
																		"patching_rect" : [ 132.0, 168.0, 27.0, 22.0 ],
																		"outlettype" : [ "" ]
																	}

																}
, 																{
																	"box" : 																	{
																		"maxclass" : "newobj",
																		"text" : "delay 1687",
																		"id" : "obj-6",
																		"numinlets" : 2,
																		"numoutlets" : 1,
																		"patching_rect" : [ 132.0, 114.0, 67.0, 22.0 ],
																		"outlettype" : [ "" ]
																	}

																}
, 																{
																	"box" : 																	{
																		"maxclass" : "newobj",
																		"text" : "+",
																		"id" : "obj-5",
																		"numinlets" : 2,
																		"numoutlets" : 1,
																		"patching_rect" : [ 49.0, 114.0, 29.5, 22.0 ],
																		"outlettype" : [ "" ]
																	}

																}
, 																{
																	"box" : 																	{
																		"maxclass" : "newobj",
																		"text" : "in 1",
																		"id" : "obj-1",
																		"numinlets" : 0,
																		"numoutlets" : 1,
																		"patching_rect" : [ 49.0, 47.0, 28.0, 22.0 ],
																		"outlettype" : [ "" ]
																	}

																}
, 																{
																	"box" : 																	{
																		"maxclass" : "newobj",
																		"text" : "out 1",
																		"id" : "obj-4",
																		"numinlets" : 1,
																		"numoutlets" : 0,
																		"patching_rect" : [ 49.0, 227.0, 35.0, 22.0 ]
																	}

																}
 ],
															"lines" : [ 																{
																	"patchline" : 																	{
																		"source" : [ "obj-6", 0 ],
																		"destination" : [ "obj-7", 0 ]
																	}

																}
, 																{
																	"patchline" : 																	{
																		"source" : [ "obj-7", 0 ],
																		"destination" : [ "obj-5", 1 ],
																		"midpoints" : [ 141.5, 200.0, 105.25, 200.0, 105.25, 103.0, 69.0, 103.0 ]
																	}

																}
, 																{
																	"patchline" : 																	{
																		"source" : [ "obj-8", 0 ],
																		"destination" : [ "obj-6", 0 ],
																		"midpoints" : [ 58.5, 200.0, 105.0, 200.0, 105.0, 103.0, 141.5, 103.0 ],
																		"order" : 0
																	}

																}
, 																{
																	"patchline" : 																	{
																		"source" : [ "obj-8", 0 ],
																		"destination" : [ "obj-4", 0 ],
																		"order" : 1
																	}

																}
, 																{
																	"patchline" : 																	{
																		"source" : [ "obj-5", 0 ],
																		"destination" : [ "obj-8", 0 ]
																	}

																}
, 																{
																	"patchline" : 																	{
																		"source" : [ "obj-1", 0 ],
																		"destination" : [ "obj-5", 0 ]
																	}

																}
 ]
														}

													}

												}
, 												{
													"box" : 													{
														"maxclass" : "newobj",
														"text" : "gen @title Allpass",
														"id" : "obj-9",
														"numinlets" : 1,
														"numoutlets" : 1,
														"patching_rect" : [ 155.0, 156.0, 104.0, 22.0 ],
														"outlettype" : [ "" ],
														"patcher" : 														{
															"fileversion" : 1,
															"appversion" : 															{
																"major" : 8,
																"minor" : 5,
																"revision" : 6,
																"architecture" : "x64",
																"modernui" : 1
															}
,
															"classnamespace" : "dsp.gen",
															"rect" : [ 1158.0, 213.0, 600.0, 450.0 ],
															"bglocked" : 0,
															"openinpresentation" : 0,
															"default_fontsize" : 12.0,
															"default_fontface" : 0,
															"default_fontname" : "Arial",
															"gridonopen" : 1,
															"gridsize" : [ 15.0, 15.0 ],
															"gridsnaponopen" : 1,
															"objectsnaponopen" : 1,
															"statusbarvisible" : 2,
															"toolbarvisible" : 1,
															"lefttoolbarpinned" : 0,
															"toptoolbarpinned" : 0,
															"righttoolbarpinned" : 0,
															"bottomtoolbarpinned" : 0,
															"toolbars_unpinned_last_save" : 0,
															"tallnewobj" : 0,
															"boxanimatetime" : 200,
															"enablehscroll" : 1,
															"enablevscroll" : 1,
															"devicewidth" : 0.0,
															"description" : "",
															"digest" : "",
															"tags" : "",
															"style" : "",
															"subpatcher_template" : "",
															"assistshowspatchername" : 0,
															"boxes" : [ 																{
																	"box" : 																	{
																		"maxclass" : "newobj",
																		"text" : "param @name size @min 0 @max 100",
																		"id" : "obj-10",
																		"numinlets" : 0,
																		"numoutlets" : 1,
																		"patching_rect" : [ 207.0, 63.0, 219.0, 22.0 ],
																		"outlettype" : [ "" ]
																	}

																}
, 																{
																	"box" : 																	{
																		"maxclass" : "newobj",
																		"text" : "* 37",
																		"id" : "obj-9",
																		"numinlets" : 1,
																		"numoutlets" : 1,
																		"patching_rect" : [ 207.0, 96.0, 30.0, 22.0 ],
																		"outlettype" : [ "" ]
																	}

																}
, 																{
																	"box" : 																	{
																		"maxclass" : "newobj",
																		"text" : "* -1",
																		"id" : "obj-8",
																		"numinlets" : 1,
																		"numoutlets" : 1,
																		"patching_rect" : [ 207.0, 199.0, 27.0, 22.0 ],
																		"outlettype" : [ "" ]
																	}

																}
, 																{
																	"box" : 																	{
																		"maxclass" : "newobj",
																		"text" : "delay",
																		"id" : "obj-7",
																		"numinlets" : 2,
																		"numoutlets" : 1,
																		"patching_rect" : [ 189.0, 129.0, 37.0, 22.0 ],
																		"outlettype" : [ "" ]
																	}

																}
, 																{
																	"box" : 																	{
																		"maxclass" : "newobj",
																		"text" : "* 0.7",
																		"id" : "obj-6",
																		"numinlets" : 1,
																		"numoutlets" : 1,
																		"patching_rect" : [ 50.0, 199.0, 33.0, 22.0 ],
																		"outlettype" : [ "" ]
																	}

																}
, 																{
																	"box" : 																	{
																		"maxclass" : "newobj",
																		"text" : "+",
																		"id" : "obj-5",
																		"numinlets" : 2,
																		"numoutlets" : 1,
																		"patching_rect" : [ 50.0, 129.0, 29.5, 22.0 ],
																		"outlettype" : [ "" ]
																	}

																}
, 																{
																	"box" : 																	{
																		"maxclass" : "newobj",
																		"text" : "in 1",
																		"id" : "obj-1",
																		"numinlets" : 0,
																		"numoutlets" : 1,
																		"patching_rect" : [ 50.0, 63.0, 28.0, 22.0 ],
																		"outlettype" : [ "" ]
																	}

																}
, 																{
																	"box" : 																	{
																		"maxclass" : "newobj",
																		"text" : "out 1",
																		"id" : "obj-4",
																		"numinlets" : 1,
																		"numoutlets" : 0,
																		"patching_rect" : [ 50.0, 283.0, 35.0, 22.0 ]
																	}

																}
 ],
															"lines" : [ 																{
																	"patchline" : 																	{
																		"source" : [ "obj-10", 0 ],
																		"destination" : [ "obj-9", 0 ]
																	}

																}
, 																{
																	"patchline" : 																	{
																		"source" : [ "obj-9", 0 ],
																		"destination" : [ "obj-7", 1 ]
																	}

																}
, 																{
																	"patchline" : 																	{
																		"source" : [ "obj-6", 0 ],
																		"destination" : [ "obj-7", 0 ],
																		"midpoints" : [ 59.5, 231.0, 131.0, 231.0, 131.0, 118.0, 198.5, 118.0 ],
																		"order" : 0
																	}

																}
, 																{
																	"patchline" : 																	{
																		"source" : [ "obj-7", 0 ],
																		"destination" : [ "obj-4", 0 ],
																		"midpoints" : [ 198.5, 245.0, 59.5, 245.0 ],
																		"order" : 1
																	}

																}
, 																{
																	"patchline" : 																	{
																		"source" : [ "obj-7", 0 ],
																		"destination" : [ "obj-8", 0 ],
																		"midpoints" : [ 198.5, 174.5, 216.5, 174.5 ],
																		"order" : 0
																	}

																}
, 																{
																	"patchline" : 																	{
																		"source" : [ "obj-8", 0 ],
																		"destination" : [ "obj-5", 1 ],
																		"midpoints" : [ 216.5, 231.0, 149.25, 231.0, 149.25, 118.0, 70.0, 118.0 ]
																	}

																}
, 																{
																	"patchline" : 																	{
																		"source" : [ "obj-6", 0 ],
																		"destination" : [ "obj-4", 0 ],
																		"order" : 1
																	}

																}
, 																{
																	"patchline" : 																	{
																		"source" : [ "obj-5", 0 ],
																		"destination" : [ "obj-6", 0 ]
																	}

																}
, 																{
																	"patchline" : 																	{
																		"source" : [ "obj-1", 0 ],
																		"destination" : [ "obj-5", 0 ]
																	}

																}
 ]
														}

													}

												}
, 												{
													"box" : 													{
														"maxclass" : "newobj",
														"text" : "gen @title Allpass",
														"id" : "obj-8",
														"numinlets" : 1,
														"numoutlets" : 1,
														"patching_rect" : [ 155.0, 126.0, 104.0, 22.0 ],
														"outlettype" : [ "" ],
														"patcher" : 														{
															"fileversion" : 1,
															"appversion" : 															{
																"major" : 8,
																"minor" : 5,
																"revision" : 6,
																"architecture" : "x64",
																"modernui" : 1
															}
,
															"classnamespace" : "dsp.gen",
															"rect" : [ 1158.0, 213.0, 600.0, 450.0 ],
															"bglocked" : 0,
															"openinpresentation" : 0,
															"default_fontsize" : 12.0,
															"default_fontface" : 0,
															"default_fontname" : "Arial",
															"gridonopen" : 1,
															"gridsize" : [ 15.0, 15.0 ],
															"gridsnaponopen" : 1,
															"objectsnaponopen" : 1,
															"statusbarvisible" : 2,
															"toolbarvisible" : 1,
															"lefttoolbarpinned" : 0,
															"toptoolbarpinned" : 0,
															"righttoolbarpinned" : 0,
															"bottomtoolbarpinned" : 0,
															"toolbars_unpinned_last_save" : 0,
															"tallnewobj" : 0,
															"boxanimatetime" : 200,
															"enablehscroll" : 1,
															"enablevscroll" : 1,
															"devicewidth" : 0.0,
															"description" : "",
															"digest" : "",
															"tags" : "",
															"style" : "",
															"subpatcher_template" : "",
															"assistshowspatchername" : 0,
															"boxes" : [ 																{
																	"box" : 																	{
																		"maxclass" : "newobj",
																		"text" : "param @name size @min 0 @max 100",
																		"id" : "obj-10",
																		"numinlets" : 0,
																		"numoutlets" : 1,
																		"patching_rect" : [ 207.0, 63.0, 219.0, 22.0 ],
																		"outlettype" : [ "" ]
																	}

																}
, 																{
																	"box" : 																	{
																		"maxclass" : "newobj",
																		"text" : "* 113",
																		"id" : "obj-9",
																		"numinlets" : 1,
																		"numoutlets" : 1,
																		"patching_rect" : [ 207.0, 96.0, 36.0, 22.0 ],
																		"outlettype" : [ "" ]
																	}

																}
, 																{
																	"box" : 																	{
																		"maxclass" : "newobj",
																		"text" : "* -1",
																		"id" : "obj-8",
																		"numinlets" : 1,
																		"numoutlets" : 1,
																		"patching_rect" : [ 207.0, 199.0, 27.0, 22.0 ],
																		"outlettype" : [ "" ]
																	}

																}
, 																{
																	"box" : 																	{
																		"maxclass" : "newobj",
																		"text" : "delay",
																		"id" : "obj-7",
																		"numinlets" : 2,
																		"numoutlets" : 1,
																		"patching_rect" : [ 189.0, 129.0, 37.0, 22.0 ],
																		"outlettype" : [ "" ]
																	}

																}
, 																{
																	"box" : 																	{
																		"maxclass" : "newobj",
																		"text" : "* 0.7",
																		"id" : "obj-6",
																		"numinlets" : 1,
																		"numoutlets" : 1,
																		"patching_rect" : [ 50.0, 199.0, 33.0, 22.0 ],
																		"outlettype" : [ "" ]
																	}

																}
, 																{
																	"box" : 																	{
																		"maxclass" : "newobj",
																		"text" : "+",
																		"id" : "obj-5",
																		"numinlets" : 2,
																		"numoutlets" : 1,
																		"patching_rect" : [ 50.0, 129.0, 29.5, 22.0 ],
																		"outlettype" : [ "" ]
																	}

																}
, 																{
																	"box" : 																	{
																		"maxclass" : "newobj",
																		"text" : "in 1",
																		"id" : "obj-1",
																		"numinlets" : 0,
																		"numoutlets" : 1,
																		"patching_rect" : [ 50.0, 63.0, 28.0, 22.0 ],
																		"outlettype" : [ "" ]
																	}

																}
, 																{
																	"box" : 																	{
																		"maxclass" : "newobj",
																		"text" : "out 1",
																		"id" : "obj-4",
																		"numinlets" : 1,
																		"numoutlets" : 0,
																		"patching_rect" : [ 50.0, 283.0, 35.0, 22.0 ]
																	}

																}
 ],
															"lines" : [ 																{
																	"patchline" : 																	{
																		"source" : [ "obj-10", 0 ],
																		"destination" : [ "obj-9", 0 ]
																	}

																}
, 																{
																	"patchline" : 																	{
																		"source" : [ "obj-9", 0 ],
																		"destination" : [ "obj-7", 1 ]
																	}

																}
, 																{
																	"patchline" : 																	{
																		"source" : [ "obj-1", 0 ],
																		"destination" : [ "obj-5", 0 ]
																	}

																}
, 																{
																	"patchline" : 																	{
																		"source" : [ "obj-5", 0 ],
																		"destination" : [ "obj-6", 0 ]
																	}

																}
, 																{
																	"patchline" : 																	{
																		"source" : [ "obj-6", 0 ],
																		"destination" : [ "obj-4", 0 ],
																		"order" : 1
																	}

																}
, 																{
																	"patchline" : 																	{
																		"source" : [ "obj-8", 0 ],
																		"destination" : [ "obj-5", 1 ],
																		"midpoints" : [ 216.5, 231.0, 149.25, 231.0, 149.25, 118.0, 70.0, 118.0 ]
																	}

																}
, 																{
																	"patchline" : 																	{
																		"source" : [ "obj-7", 0 ],
																		"destination" : [ "obj-8", 0 ],
																		"midpoints" : [ 198.5, 174.5, 216.5, 174.5 ],
																		"order" : 0
																	}

																}
, 																{
																	"patchline" : 																	{
																		"source" : [ "obj-7", 0 ],
																		"destination" : [ "obj-4", 0 ],
																		"midpoints" : [ 198.5, 245.0, 59.5, 245.0 ],
																		"order" : 1
																	}

																}
, 																{
																	"patchline" : 																	{
																		"source" : [ "obj-6", 0 ],
																		"destination" : [ "obj-7", 0 ],
																		"midpoints" : [ 59.5, 231.0, 131.0, 231.0, 131.0, 118.0, 198.5, 118.0 ],
																		"order" : 0
																	}

																}
 ]
														}

													}

												}
, 												{
													"box" : 													{
														"maxclass" : "newobj",
														"text" : "gen @title Allpass",
														"id" : "obj-7",
														"numinlets" : 1,
														"numoutlets" : 1,
														"patching_rect" : [ 155.0, 97.0, 104.0, 22.0 ],
														"outlettype" : [ "" ],
														"patcher" : 														{
															"fileversion" : 1,
															"appversion" : 															{
																"major" : 8,
																"minor" : 5,
																"revision" : 6,
																"architecture" : "x64",
																"modernui" : 1
															}
,
															"classnamespace" : "dsp.gen",
															"rect" : [ 1158.0, 213.0, 600.0, 450.0 ],
															"bglocked" : 0,
															"openinpresentation" : 0,
															"default_fontsize" : 12.0,
															"default_fontface" : 0,
															"default_fontname" : "Arial",
															"gridonopen" : 1,
															"gridsize" : [ 15.0, 15.0 ],
															"gridsnaponopen" : 1,
															"objectsnaponopen" : 1,
															"statusbarvisible" : 2,
															"toolbarvisible" : 1,
															"lefttoolbarpinned" : 0,
															"toptoolbarpinned" : 0,
															"righttoolbarpinned" : 0,
															"bottomtoolbarpinned" : 0,
															"toolbars_unpinned_last_save" : 0,
															"tallnewobj" : 0,
															"boxanimatetime" : 200,
															"enablehscroll" : 1,
															"enablevscroll" : 1,
															"devicewidth" : 0.0,
															"description" : "",
															"digest" : "",
															"tags" : "",
															"style" : "",
															"subpatcher_template" : "",
															"assistshowspatchername" : 0,
															"boxes" : [ 																{
																	"box" : 																	{
																		"maxclass" : "newobj",
																		"text" : "param @name size @min 0 @max 100",
																		"id" : "obj-10",
																		"numinlets" : 0,
																		"numoutlets" : 1,
																		"patching_rect" : [ 207.0, 63.0, 219.0, 22.0 ],
																		"outlettype" : [ "" ]
																	}

																}
, 																{
																	"box" : 																	{
																		"maxclass" : "newobj",
																		"text" : "* 347",
																		"id" : "obj-9",
																		"numinlets" : 1,
																		"numoutlets" : 1,
																		"patching_rect" : [ 207.0, 96.0, 37.0, 22.0 ],
																		"outlettype" : [ "" ]
																	}

																}
, 																{
																	"box" : 																	{
																		"maxclass" : "newobj",
																		"text" : "* -1",
																		"id" : "obj-8",
																		"numinlets" : 1,
																		"numoutlets" : 1,
																		"patching_rect" : [ 207.0, 199.0, 27.0, 22.0 ],
																		"outlettype" : [ "" ]
																	}

																}
, 																{
																	"box" : 																	{
																		"maxclass" : "newobj",
																		"text" : "delay",
																		"id" : "obj-7",
																		"numinlets" : 2,
																		"numoutlets" : 1,
																		"patching_rect" : [ 189.0, 129.0, 37.0, 22.0 ],
																		"outlettype" : [ "" ]
																	}

																}
, 																{
																	"box" : 																	{
																		"maxclass" : "newobj",
																		"text" : "* 0.7",
																		"id" : "obj-6",
																		"numinlets" : 1,
																		"numoutlets" : 1,
																		"patching_rect" : [ 50.0, 199.0, 33.0, 22.0 ],
																		"outlettype" : [ "" ]
																	}

																}
, 																{
																	"box" : 																	{
																		"maxclass" : "newobj",
																		"text" : "+",
																		"id" : "obj-5",
																		"numinlets" : 2,
																		"numoutlets" : 1,
																		"patching_rect" : [ 50.0, 129.0, 29.5, 22.0 ],
																		"outlettype" : [ "" ]
																	}

																}
, 																{
																	"box" : 																	{
																		"maxclass" : "newobj",
																		"text" : "in 1",
																		"id" : "obj-1",
																		"numinlets" : 0,
																		"numoutlets" : 1,
																		"patching_rect" : [ 50.0, 63.0, 28.0, 22.0 ],
																		"outlettype" : [ "" ]
																	}

																}
, 																{
																	"box" : 																	{
																		"maxclass" : "newobj",
																		"text" : "out 1",
																		"id" : "obj-4",
																		"numinlets" : 1,
																		"numoutlets" : 0,
																		"patching_rect" : [ 50.0, 283.0, 35.0, 22.0 ]
																	}

																}
 ],
															"lines" : [ 																{
																	"patchline" : 																	{
																		"source" : [ "obj-10", 0 ],
																		"destination" : [ "obj-9", 0 ]
																	}

																}
, 																{
																	"patchline" : 																	{
																		"source" : [ "obj-9", 0 ],
																		"destination" : [ "obj-7", 1 ]
																	}

																}
, 																{
																	"patchline" : 																	{
																		"source" : [ "obj-6", 0 ],
																		"destination" : [ "obj-7", 0 ],
																		"midpoints" : [ 59.5, 231.0, 131.0, 231.0, 131.0, 118.0, 198.5, 118.0 ],
																		"order" : 0
																	}

																}
, 																{
																	"patchline" : 																	{
																		"source" : [ "obj-7", 0 ],
																		"destination" : [ "obj-4", 0 ],
																		"midpoints" : [ 198.5, 245.0, 59.5, 245.0 ],
																		"order" : 1
																	}

																}
, 																{
																	"patchline" : 																	{
																		"source" : [ "obj-7", 0 ],
																		"destination" : [ "obj-8", 0 ],
																		"midpoints" : [ 198.5, 174.5, 216.5, 174.5 ],
																		"order" : 0
																	}

																}
, 																{
																	"patchline" : 																	{
																		"source" : [ "obj-8", 0 ],
																		"destination" : [ "obj-5", 1 ],
																		"midpoints" : [ 216.5, 231.0, 149.25, 231.0, 149.25, 118.0, 70.0, 118.0 ]
																	}

																}
, 																{
																	"patchline" : 																	{
																		"source" : [ "obj-6", 0 ],
																		"destination" : [ "obj-4", 0 ],
																		"order" : 1
																	}

																}
, 																{
																	"patchline" : 																	{
																		"source" : [ "obj-5", 0 ],
																		"destination" : [ "obj-6", 0 ]
																	}

																}
, 																{
																	"patchline" : 																	{
																		"source" : [ "obj-1", 0 ],
																		"destination" : [ "obj-5", 0 ]
																	}

																}
 ]
														}

													}

												}
, 												{
													"box" : 													{
														"maxclass" : "newobj",
														"text" : "out 2",
														"id" : "obj-5",
														"numinlets" : 1,
														"numoutlets" : 0,
														"patching_rect" : [ 181.0, 318.0, 35.0, 22.0 ]
													}

												}
, 												{
													"box" : 													{
														"maxclass" : "newobj",
														"text" : "in 1",
														"id" : "obj-1",
														"numinlets" : 0,
														"numoutlets" : 1,
														"patching_rect" : [ 155.0, 41.0, 28.0, 22.0 ],
														"outlettype" : [ "" ]
													}

												}
, 												{
													"box" : 													{
														"maxclass" : "newobj",
														"text" : "in 2",
														"id" : "obj-2",
														"numinlets" : 0,
														"numoutlets" : 1,
														"patching_rect" : [ 231.0, 41.0, 28.0, 22.0 ],
														"outlettype" : [ "" ]
													}

												}
, 												{
													"box" : 													{
														"maxclass" : "newobj",
														"text" : "out 1",
														"id" : "obj-4",
														"numinlets" : 1,
														"numoutlets" : 0,
														"patching_rect" : [ 150.0, 318.0, 35.0, 22.0 ]
													}

												}
 ],
											"lines" : [ 												{
													"patchline" : 													{
														"source" : [ "obj-14", 1 ],
														"destination" : [ "obj-5", 0 ]
													}

												}
, 												{
													"patchline" : 													{
														"source" : [ "obj-14", 3 ],
														"destination" : [ "obj-5", 0 ]
													}

												}
, 												{
													"patchline" : 													{
														"source" : [ "obj-13", 0 ],
														"destination" : [ "obj-14", 3 ]
													}

												}
, 												{
													"patchline" : 													{
														"source" : [ "obj-12", 0 ],
														"destination" : [ "obj-14", 2 ]
													}

												}
, 												{
													"patchline" : 													{
														"source" : [ "obj-11", 0 ],
														"destination" : [ "obj-14", 1 ]
													}

												}
, 												{
													"patchline" : 													{
														"source" : [ "obj-10", 0 ],
														"destination" : [ "obj-14", 0 ]
													}

												}
, 												{
													"patchline" : 													{
														"source" : [ "obj-14", 2 ],
														"destination" : [ "obj-4", 0 ]
													}

												}
, 												{
													"patchline" : 													{
														"source" : [ "obj-14", 0 ],
														"destination" : [ "obj-4", 0 ]
													}

												}
, 												{
													"patchline" : 													{
														"source" : [ "obj-2", 0 ],
														"destination" : [ "obj-7", 0 ]
													}

												}
, 												{
													"patchline" : 													{
														"source" : [ "obj-9", 0 ],
														"destination" : [ "obj-13", 0 ],
														"order" : 0
													}

												}
, 												{
													"patchline" : 													{
														"source" : [ "obj-9", 0 ],
														"destination" : [ "obj-12", 0 ],
														"order" : 1
													}

												}
, 												{
													"patchline" : 													{
														"source" : [ "obj-9", 0 ],
														"destination" : [ "obj-11", 0 ],
														"order" : 2
													}

												}
, 												{
													"patchline" : 													{
														"source" : [ "obj-9", 0 ],
														"destination" : [ "obj-10", 0 ],
														"order" : 3
													}

												}
, 												{
													"patchline" : 													{
														"source" : [ "obj-8", 0 ],
														"destination" : [ "obj-9", 0 ]
													}

												}
, 												{
													"patchline" : 													{
														"source" : [ "obj-7", 0 ],
														"destination" : [ "obj-8", 0 ]
													}

												}
, 												{
													"patchline" : 													{
														"source" : [ "obj-1", 0 ],
														"destination" : [ "obj-7", 0 ]
													}

												}
 ]
										}

									}
,
									"id" : "obj-1",
									"maxclass" : "newobj",
									"numinlets" : 2,
									"numoutlets" : 2,
									"outlettype" : [ "signal", "signal" ],
									"patching_rect" : [ 76.0, 110.0, 108.0, 23.0 ],
									"rnbo_classname" : "gen~",
									"rnbo_extra_attributes" : 									{
										"exposeparams" : 0
									}
,
									"rnbo_serial" : 1,
									"rnbo_uniqueid" : "Reverb",
									"rnboinfo" : 									{
										"needsInstanceInfo" : 1,
										"argnames" : 										{
											"in1" : 											{
												"attrOrProp" : 1,
												"digest" : "in1",
												"isalias" : 0,
												"aliases" : [  ],
												"attachable" : 0,
												"isparam" : 0,
												"deprecated" : 0,
												"inlet" : 1,
												"type" : "number"
											}
,
											"reset" : 											{
												"attrOrProp" : 1,
												"digest" : "Reset all param and history objects to initial values",
												"isalias" : 0,
												"aliases" : [  ],
												"attachable" : 1,
												"isparam" : 0,
												"deprecated" : 0,
												"type" : "bang"
											}
,
											"expr" : 											{
												"attrOrProp" : 2,
												"digest" : "a gen expression",
												"isalias" : 0,
												"aliases" : [  ],
												"settable" : 1,
												"attachable" : 0,
												"isparam" : 0,
												"deprecated" : 0,
												"type" : "symbol",
												"doNotShowInMaxInspector" : 1
											}
,
											"file" : 											{
												"attrOrProp" : 2,
												"digest" : "gendsp file to load",
												"isalias" : 0,
												"aliases" : [  ],
												"settable" : 1,
												"attachable" : 0,
												"isparam" : 0,
												"deprecated" : 0,
												"type" : "symbol",
												"doNotShowInMaxInspector" : 1
											}
,
											"title" : 											{
												"attrOrProp" : 2,
												"digest" : "a title",
												"defaultarg" : 1,
												"isalias" : 0,
												"aliases" : [ "t" ],
												"settable" : 1,
												"attachable" : 0,
												"isparam" : 0,
												"deprecated" : 0,
												"type" : "symbol",
												"doNotShowInMaxInspector" : 1
											}
,
											"t" : 											{
												"attrOrProp" : 2,
												"digest" : "a title",
												"defaultarg" : 1,
												"isalias" : 1,
												"aliasOf" : "title",
												"aliases" : [  ],
												"settable" : 1,
												"attachable" : 0,
												"isparam" : 0,
												"deprecated" : 0,
												"type" : "symbol"
											}
,
											"exposeparams" : 											{
												"attrOrProp" : 2,
												"digest" : "Expose gen params as RNBO params.",
												"isalias" : 0,
												"aliases" : [  ],
												"settable" : 1,
												"attachable" : 0,
												"isparam" : 0,
												"deprecated" : 0,
												"type" : "bool",
												"defaultValue" : "false"
											}

										}
,
										"inputs" : [ 											{
												"name" : "in1",
												"type" : "auto",
												"digest" : "in1",
												"hot" : 1,
												"docked" : 0
											}
, 											{
												"name" : "in2",
												"type" : "auto"
											}
 ],
										"outputs" : [ 											{
												"name" : "out1",
												"type" : "signal"
											}
, 											{
												"name" : "out2",
												"type" : "signal"
											}
 ],
										"helpname" : "gen~",
										"aliasOf" : "gen~",
										"classname" : "gen~",
										"operator" : 0,
										"versionId" : 1405647718,
										"changesPatcherIO" : 0
									}
,
									"text" : "gen~ @title Reverb",
									"varname" : "Reverb"
								}

							}
 ],
						"lines" : [  ],
						"default_bgcolor" : [ 0.031372549019608, 0.125490196078431, 0.211764705882353, 1.0 ],
						"color" : [ 0.929412, 0.929412, 0.352941, 1.0 ],
						"elementcolor" : [ 0.357540726661682, 0.515565991401672, 0.861786782741547, 1.0 ],
						"accentcolor" : [ 0.343034118413925, 0.506230533123016, 0.86220508813858, 1.0 ],
						"textcolor_inverse" : [ 0.968627, 0.968627, 0.968627, 1.0 ],
						"stripecolor" : [ 0.258338063955307, 0.352425158023834, 0.511919498443604, 1.0 ],
						"bgfillcolor_type" : "color",
						"bgfillcolor_color" : [ 0.031372549019608, 0.125490196078431, 0.211764705882353, 1.0 ],
						"bgfillcolor_color1" : [ 0.031372549019608, 0.125490196078431, 0.211764705882353, 1.0 ],
						"bgfillcolor_color2" : [ 0.263682, 0.004541, 0.038797, 1.0 ],
						"bgfillcolor_angle" : 270.0,
						"bgfillcolor_proportion" : 0.39,
						"bgfillcolor_autogradient" : 0.0
					}
,
					"patching_rect" : [ 191.0, 226.0, 40.0, 22.0 ],
					"rnboattrcache" : 					{

					}
,
					"rnboversion" : "1.2.1",
					"saved_attribute_attributes" : 					{
						"valueof" : 						{
							"parameter_invisible" : 1,
							"parameter_longname" : "rnbo~",
							"parameter_shortname" : "rnbo~",
							"parameter_type" : 3
						}

					}
,
					"saved_object_attributes" : 					{
						"optimization" : "O1",
						"parameter_enable" : 1,
						"uuid" : "c2a3b643-dda0-11ee-b643-acde48001122"
					}
,
					"snapshot" : 					{
						"filetype" : "C74Snapshot",
						"version" : 2,
						"minorversion" : 0,
						"name" : "snapshotlist",
						"origin" : "rnbo~",
						"type" : "list",
						"subtype" : "Undefined",
						"embed" : 1,
						"snapshot" : 						{
							"__presetid" : "c2a3b643-dda0-11ee-b643-acde48001122"
						}
,
						"snapshotlist" : 						{
							"current_snapshot" : 0,
							"entries" : [ 								{
									"filetype" : "C74Snapshot",
									"version" : 2,
									"minorversion" : 0,
									"name" : "untitled",
									"origin" : "c2a3b643-dda0-11ee-b643-acde48001122",
									"type" : "rnbo",
									"subtype" : "",
									"embed" : 0,
									"snapshot" : 									{
										"__presetid" : "c2a3b643-dda0-11ee-b643-acde48001122"
									}
,
									"fileref" : 									{
										"name" : "untitled",
										"filename" : "untitled_20240308.maxsnap",
										"filepath" : "~/Documents/Max 8/Snapshots",
										"filepos" : -1,
										"snapshotfileid" : "a72e225ef1fee568969f64a2fc13098d"
									}

								}
 ]
						}

					}
,
					"text" : "rnbo~",
					"varname" : "rnbo~"
				}

			}
 ],
		"lines" : [  ],
		"parameters" : 		{
			"obj-1" : [ "rnbo~", "rnbo~", 0 ],
			"parameterbanks" : 			{
				"0" : 				{
					"index" : 0,
					"name" : "",
					"parameters" : [ "-", "-", "-", "-", "-", "-", "-", "-" ]
				}

			}
,
			"inherited_shortname" : 1
		}
,
		"dependency_cache" : [ 			{
				"name" : "untitled_20240308.maxsnap",
				"bootpath" : "~/Documents/Max 8/Snapshots",
				"patcherrelativepath" : "../../../../Documents/Max 8/Snapshots",
				"type" : "mx@s",
				"implicit" : 1
			}
 ],
		"autosave" : 0
	}

}
