{
	"patcher" : 	{
		"fileversion" : 1,
		"appversion" : 		{
			"major" : 8,
			"minor" : 5,
			"revision" : 5,
			"architecture" : "x64",
			"modernui" : 1
		}
,
		"classnamespace" : "box",
		"rect" : [ 34.0, 664.0, 783.0, 412.0 ],
		"bglocked" : 0,
		"openinpresentation" : 0,
		"default_fontsize" : 12.0,
		"default_fontface" : 0,
		"default_fontname" : "Arial",
		"gridonopen" : 1,
		"gridsize" : [ 15.0, 15.0 ],
		"gridsnaponopen" : 1,
		"objectsnaponopen" : 1,
		"statusbarvisible" : 2,
		"toolbarvisible" : 1,
		"lefttoolbarpinned" : 0,
		"toptoolbarpinned" : 0,
		"righttoolbarpinned" : 0,
		"bottomtoolbarpinned" : 0,
		"toolbars_unpinned_last_save" : 0,
		"tallnewobj" : 0,
		"boxanimatetime" : 200,
		"enablehscroll" : 1,
		"enablevscroll" : 1,
		"devicewidth" : 0.0,
		"description" : "",
		"digest" : "",
		"tags" : "",
		"style" : "",
		"subpatcher_template" : "",
		"assistshowspatchername" : 0,
		"boxes" : [ 			{
				"box" : 				{
					"attr" : "speed",
					"id" : "obj-28",
					"maxclass" : "attrui",
					"numinlets" : 1,
					"numoutlets" : 1,
					"outlettype" : [ "" ],
					"parameter_enable" : 0,
					"patching_rect" : [ 514.0, 206.0, 150.0, 22.0 ]
				}

			}
, 			{
				"box" : 				{
					"attr" : "timestretch",
					"id" : "obj-29",
					"maxclass" : "attrui",
					"numinlets" : 1,
					"numoutlets" : 1,
					"outlettype" : [ "" ],
					"parameter_enable" : 0,
					"patching_rect" : [ 668.0, 206.0, 150.0, 22.0 ]
				}

			}
, 			{
				"box" : 				{
					"basictuning" : 440,
					"data" : 					{
						"clips" : [ 							{
								"absolutepath" : "Macintosh HD:/Users/slykiddruthless/Desktop/Exports/kid.wav",
								"filename" : "kid.wav",
								"filekind" : "audiofile",
								"id" : "u307008346",
								"loop" : 1,
								"content_state" : 								{
									"timestretch" : 0,
									"loop" : 1,
									"speed" : 2
								}

							}
 ]
					}
,
					"followglobaltempo" : 0,
					"formantcorrection" : 0,
					"id" : "obj-27",
					"maxclass" : "playlist~",
					"mode" : "basic",
					"numinlets" : 1,
					"numoutlets" : 5,
					"originallength" : [ 69120.0, "ticks" ],
					"originaltempo" : 120.0,
					"outlettype" : [ "signal", "signal", "signal", "", "dictionary" ],
					"parameter_enable" : 0,
					"patching_rect" : [ 590.0, 266.0, 150.0, 30.0 ],
					"pitchcorrection" : 0,
					"quality" : "basic",
					"timestretch" : [ 0 ]
				}

			}
, 			{
				"box" : 				{
					"attr" : "speed",
					"id" : "obj-24",
					"maxclass" : "attrui",
					"numinlets" : 1,
					"numoutlets" : 1,
					"outlettype" : [ "" ],
					"parameter_enable" : 0,
					"patching_rect" : [ 509.0, 58.0, 150.0, 22.0 ]
				}

			}
, 			{
				"box" : 				{
					"attr" : "timestretch",
					"id" : "obj-25",
					"maxclass" : "attrui",
					"numinlets" : 1,
					"numoutlets" : 1,
					"outlettype" : [ "" ],
					"parameter_enable" : 0,
					"patching_rect" : [ 663.0, 58.0, 150.0, 22.0 ]
				}

			}
, 			{
				"box" : 				{
					"basictuning" : 440,
					"data" : 					{
						"clips" : [ 							{
								"absolutepath" : "Macintosh HD:/Users/slykiddruthless/Downloads/I-85 N 2.m4a",
								"filename" : "I-85 N 2.m4a",
								"filekind" : "audiofile",
								"id" : "u344007872",
								"loop" : 1,
								"content_state" : 								{
									"loop" : 1,
									"timestretch" : 0,
									"speed" : 2
								}

							}
 ]
					}
,
					"followglobaltempo" : 0,
					"formantcorrection" : 0,
					"id" : "obj-23",
					"maxclass" : "playlist~",
					"mode" : "basic",
					"numinlets" : 1,
					"numoutlets" : 5,
					"originallength" : [ 0.0, "ticks" ],
					"originaltempo" : 120.0,
					"outlettype" : [ "signal", "signal", "signal", "", "dictionary" ],
					"parameter_enable" : 0,
					"patching_rect" : [ 525.0, 96.0, 150.0, 30.0 ],
					"pitchcorrection" : 0,
					"quality" : "basic",
					"timestretch" : [ 0 ]
				}

			}
, 			{
				"box" : 				{
					"id" : "obj-8",
					"maxclass" : "scope~",
					"numinlets" : 2,
					"numoutlets" : 0,
					"patching_rect" : [ 182.0, 233.0, 130.0, 130.0 ]
				}

			}
, 			{
				"box" : 				{
					"id" : "obj-5",
					"maxclass" : "ezdac~",
					"numinlets" : 2,
					"numoutlets" : 0,
					"patching_rect" : [ 93.0, 233.0, 45.0, 45.0 ]
				}

			}
, 			{
				"box" : 				{
					"basictuning" : 440,
					"data" : 					{
						"clips" : [ 							{
								"absolutepath" : "Macintosh HD:/Users/slykiddruthless/Music/Ableton/User Library/Drum Breaks/1dnb/DnB Breaks/DNB_BREAK_112.wav",
								"filename" : "DNB_BREAK_112.wav",
								"filekind" : "audiofile",
								"id" : "u656002821",
								"loop" : 1,
								"content_state" : 								{
									"loop" : 1,
									"speed" : 0.75,
									"timestretch" : 0
								}

							}
 ]
					}
,
					"followglobaltempo" : 0,
					"formantcorrection" : 0,
					"id" : "obj-3",
					"maxclass" : "playlist~",
					"mode" : "basic",
					"numinlets" : 1,
					"numoutlets" : 5,
					"originallength" : [ 2648.272108843537353, "ticks" ],
					"originaltempo" : 120.000000000000014,
					"outlettype" : [ "signal", "signal", "signal", "", "dictionary" ],
					"parameter_enable" : 0,
					"patching_rect" : [ 178.0, 96.0, 150.0, 30.0 ],
					"pitchcorrection" : 0,
					"quality" : "basic",
					"timestretch" : [ 0 ]
				}

			}
, 			{
				"box" : 				{
					"autosave" : 1,
					"id" : "obj-1",
					"inletInfo" : 					{
						"IOInfo" : [ 							{
								"type" : "signal",
								"index" : 1,
								"tag" : "in1",
								"comment" : ""
							}
, 							{
								"type" : "signal",
								"index" : 2,
								"tag" : "in2",
								"comment" : ""
							}
 ]
					}
,
					"maxclass" : "newobj",
					"numinlets" : 2,
					"numoutlets" : 3,
					"outletInfo" : 					{
						"IOInfo" : [ 							{
								"type" : "signal",
								"index" : 1,
								"tag" : "out1",
								"comment" : ""
							}
, 							{
								"type" : "signal",
								"index" : 2,
								"tag" : "out2",
								"comment" : ""
							}
 ]
					}
,
					"outlettype" : [ "signal", "signal", "list" ],
					"patcher" : 					{
						"fileversion" : 1,
						"appversion" : 						{
							"major" : 8,
							"minor" : 5,
							"revision" : 5,
							"architecture" : "x64",
							"modernui" : 1
						}
,
						"classnamespace" : "rnbo",
						"rect" : [ 34.0, 87.0, 755.0, 480.0 ],
						"bglocked" : 0,
						"openinpresentation" : 0,
						"default_fontsize" : 12.0,
						"default_fontface" : 0,
						"default_fontname" : "Lato",
						"gridonopen" : 1,
						"gridsize" : [ 15.0, 15.0 ],
						"gridsnaponopen" : 1,
						"objectsnaponopen" : 1,
						"statusbarvisible" : 2,
						"toolbarvisible" : 1,
						"lefttoolbarpinned" : 0,
						"toptoolbarpinned" : 0,
						"righttoolbarpinned" : 0,
						"bottomtoolbarpinned" : 0,
						"toolbars_unpinned_last_save" : 0,
						"tallnewobj" : 0,
						"boxanimatetime" : 200,
						"enablehscroll" : 1,
						"enablevscroll" : 1,
						"devicewidth" : 0.0,
						"description" : "",
						"digest" : "",
						"tags" : "",
						"style" : "",
						"subpatcher_template" : "",
						"assistshowspatchername" : 0,
						"title" : "untitled",
						"boxes" : [ 							{
								"box" : 								{
									"format" : 0,
									"id" : "obj-9",
									"maxclass" : "number",
									"maximum" : 1,
									"minimum" : 0,
									"numinlets" : 1,
									"numoutlets" : 1,
									"outlettype" : [ "" ],
									"parameter_enable" : 0,
									"patching_rect" : [ 24.5, 162.0, 50.0, 23.0 ],
									"rnbo_classname" : "number",
									"rnbo_extra_attributes" : 									{
										"maximum" : 1,
										"minimum" : 0,
										"preset" : 0,
										"initialFormat" : "integer",
										"order" : ""
									}
,
									"rnbo_serial" : 11,
									"rnbo_uniqueid" : "number_obj-9"
								}

							}
, 							{
								"box" : 								{
									"id" : "obj-6",
									"maxclass" : "newobj",
									"numinlets" : 1,
									"numoutlets" : 1,
									"outlettype" : [ "" ],
									"patching_rect" : [ 24.5, 192.0, 58.0, 23.0 ],
									"rnbo_classname" : "set",
									"rnbo_serial" : 7,
									"rnbo_uniqueid" : "set_obj-6",
									"rnboinfo" : 									{
										"needsInstanceInfo" : 1,
										"argnames" : 										{
											"name" : 											{
												"attrOrProp" : 2,
												"digest" : "attribute/param to control",
												"defaultarg" : 1,
												"isalias" : 0,
												"aliases" : [  ],
												"settable" : 1,
												"attachable" : 0,
												"isparam" : 0,
												"deprecated" : 0,
												"type" : "symbol",
												"mandatory" : 1
											}

										}
,
										"inputs" : [ 											{
												"name" : "input",
												"type" : [ "bang", "number", "list", "signal" ],
												"digest" : "attribute or parameter value (bang, number, list)",
												"hot" : 1,
												"docked" : 0
											}
 ],
										"outputs" : [ 											{
												"name" : "output",
												"type" : [ "bang", "number", "list", "signal" ],
												"digest" : "connect to first inlet of gen or subpatcher",
												"docked" : 0
											}
 ],
										"helpname" : "set",
										"aliasOf" : "set",
										"classname" : "set",
										"operator" : 0,
										"versionId" : 2121358407,
										"changesPatcherIO" : 0
									}
,
									"text" : "set select"
								}

							}
, 							{
								"box" : 								{
									"id" : "obj-47",
									"maxclass" : "newobj",
									"numinlets" : 2,
									"numoutlets" : 1,
									"outlettype" : [ "" ],
									"patching_rect" : [ 512.5, 236.0, 29.5, 23.0 ],
									"rnbo_classname" : "*",
									"rnbo_extra_attributes" : 									{
										"hot" : 0
									}
,
									"rnbo_serial" : 1,
									"rnbo_uniqueid" : "*_obj-47",
									"text" : "*"
								}

							}
, 							{
								"box" : 								{
									"id" : "obj-46",
									"maxclass" : "toggle",
									"numinlets" : 1,
									"numoutlets" : 1,
									"outlettype" : [ "int" ],
									"parameter_enable" : 0,
									"patching_rect" : [ 424.0, 236.0, 24.0, 24.0 ],
									"rnbo_classname" : "toggle",
									"rnbo_extra_attributes" : 									{
										"preset" : 0,
										"order" : ""
									}
,
									"rnbo_serial" : 1,
									"rnbo_uniqueid" : "toggle_obj-46"
								}

							}
, 							{
								"box" : 								{
									"format" : 0,
									"id" : "obj-44",
									"maxclass" : "number",
									"numinlets" : 1,
									"numoutlets" : 1,
									"outlettype" : [ "" ],
									"parameter_enable" : 0,
									"patching_rect" : [ 563.75, 188.0, 50.0, 23.0 ],
									"rnbo_classname" : "number",
									"rnbo_extra_attributes" : 									{
										"maximum" : "<none>",
										"minimum" : "<none>",
										"preset" : 0,
										"initialFormat" : "integer",
										"order" : ""
									}
,
									"rnbo_serial" : 1,
									"rnbo_uniqueid" : "number_obj-44"
								}

							}
, 							{
								"box" : 								{
									"id" : "obj-40",
									"maxclass" : "newobj",
									"numinlets" : 2,
									"numoutlets" : 1,
									"outlettype" : [ "signal" ],
									"patching_rect" : [ 461.5, 300.0, 82.0, 23.0 ],
									"rnbo_classname" : "sig~",
									"rnbo_serial" : 1,
									"rnbo_uniqueid" : "sig~_obj-40",
									"text" : "sig~ @unit ms"
								}

							}
, 							{
								"box" : 								{
									"id" : "obj-39",
									"maxclass" : "newobj",
									"numinlets" : 2,
									"numoutlets" : 1,
									"outlettype" : [ "" ],
									"patching_rect" : [ 461.5, 267.0, 40.0, 23.0 ],
									"rnbo_classname" : "metro",
									"rnbo_extra_attributes" : 									{
										"lock" : 0.0
									}
,
									"rnbo_serial" : 1,
									"rnbo_uniqueid" : "metro_obj-39",
									"text" : "metro"
								}

							}
, 							{
								"box" : 								{
									"id" : "obj-35",
									"maxclass" : "message",
									"numinlets" : 2,
									"numoutlets" : 1,
									"outlettype" : [ "" ],
									"patching_rect" : [ 529.75, 188.0, 32.0, 23.0 ],
									"rnbo_classname" : "message",
									"rnbo_extra_attributes" : 									{
										"text" : ""
									}
,
									"rnbo_serial" : 1,
									"rnbo_uniqueid" : "message_obj-35",
									"text" : "0.25"
								}

							}
, 							{
								"box" : 								{
									"id" : "obj-34",
									"maxclass" : "message",
									"numinlets" : 2,
									"numoutlets" : 1,
									"outlettype" : [ "" ],
									"patching_rect" : [ 498.25, 188.0, 29.5, 23.0 ],
									"rnbo_classname" : "message",
									"rnbo_extra_attributes" : 									{
										"text" : ""
									}
,
									"rnbo_serial" : 2,
									"rnbo_uniqueid" : "message_obj-34",
									"text" : "0.5"
								}

							}
, 							{
								"box" : 								{
									"id" : "obj-33",
									"maxclass" : "message",
									"numinlets" : 2,
									"numoutlets" : 1,
									"outlettype" : [ "" ],
									"patching_rect" : [ 466.75, 188.0, 29.5, 23.0 ],
									"rnbo_classname" : "message",
									"rnbo_extra_attributes" : 									{
										"text" : ""
									}
,
									"rnbo_serial" : 3,
									"rnbo_uniqueid" : "message_obj-33",
									"text" : "1"
								}

							}
, 							{
								"box" : 								{
									"id" : "obj-30",
									"maxclass" : "newobj",
									"numinlets" : 1,
									"numoutlets" : 0,
									"patching_rect" : [ 347.0, 305.0, 43.0, 23.0 ],
									"rnbo_classname" : "out~",
									"rnbo_extra_attributes" : 									{
										"meta" : "",
										"comment" : ""
									}
,
									"rnbo_serial" : 1,
									"rnbo_uniqueid" : "out~_obj-30",
									"rnboinfo" : 									{
										"needsInstanceInfo" : 1,
										"argnames" : 										{
											"in1" : 											{
												"attrOrProp" : 1,
												"digest" : "signal sent to outlet with index 2",
												"isalias" : 0,
												"aliases" : [  ],
												"settable" : 0,
												"attachable" : 0,
												"isparam" : 0,
												"deprecated" : 0,
												"inlet" : 1,
												"type" : "signal"
											}
,
											"index" : 											{
												"attrOrProp" : 2,
												"digest" : "outlet number",
												"defaultarg" : 1,
												"isalias" : 0,
												"aliases" : [  ],
												"settable" : 1,
												"attachable" : 0,
												"isparam" : 0,
												"deprecated" : 0,
												"type" : "number",
												"mandatory" : 1
											}
,
											"comment" : 											{
												"attrOrProp" : 2,
												"digest" : "mouse over comment",
												"isalias" : 0,
												"aliases" : [  ],
												"settable" : 1,
												"attachable" : 0,
												"isparam" : 0,
												"deprecated" : 0,
												"type" : "symbol"
											}
,
											"meta" : 											{
												"attrOrProp" : 2,
												"digest" : "A JSON formatted string containing metadata for use by the exported code",
												"isalias" : 0,
												"aliases" : [  ],
												"settable" : 1,
												"attachable" : 0,
												"isparam" : 0,
												"deprecated" : 0,
												"type" : "symbol",
												"defaultValue" : "",
												"label" : "Metadata",
												"displayorder" : 3
											}

										}
,
										"inputs" : [ 											{
												"name" : "in1",
												"type" : "signal",
												"digest" : "signal sent to outlet with index 2",
												"displayName" : "",
												"hot" : 1,
												"docked" : 0
											}
 ],
										"outputs" : [  ],
										"helpname" : "out~",
										"aliasOf" : "out~",
										"classname" : "out~",
										"operator" : 0,
										"versionId" : 374499139,
										"changesPatcherIO" : 1
									}
,
									"text" : "out~ 2"
								}

							}
, 							{
								"box" : 								{
									"id" : "obj-28",
									"maxclass" : "flonum",
									"maximum" : 1.0,
									"minimum" : 0.0,
									"numinlets" : 1,
									"numoutlets" : 1,
									"outlettype" : [ "" ],
									"parameter_enable" : 0,
									"patching_rect" : [ 118.5, 57.0, 50.0, 23.0 ],
									"rnbo_classname" : "number",
									"rnbo_extra_attributes" : 									{
										"maximum" : 1.0,
										"minimum" : 0.0,
										"preset" : 0,
										"initialFormat" : "float",
										"order" : ""
									}
,
									"rnbo_serial" : 2,
									"rnbo_uniqueid" : "number_obj-28"
								}

							}
, 							{
								"box" : 								{
									"id" : "obj-29",
									"maxclass" : "newobj",
									"numinlets" : 1,
									"numoutlets" : 1,
									"outlettype" : [ "" ],
									"patching_rect" : [ 118.5, 99.0, 56.0, 23.0 ],
									"rnbo_classname" : "set",
									"rnbo_serial" : 1,
									"rnbo_uniqueid" : "set_obj-29",
									"rnboinfo" : 									{
										"needsInstanceInfo" : 1,
										"argnames" : 										{
											"name" : 											{
												"attrOrProp" : 2,
												"digest" : "attribute/param to control",
												"defaultarg" : 1,
												"isalias" : 0,
												"aliases" : [  ],
												"settable" : 1,
												"attachable" : 0,
												"isparam" : 0,
												"deprecated" : 0,
												"type" : "symbol",
												"mandatory" : 1
											}

										}
,
										"inputs" : [ 											{
												"name" : "input",
												"type" : [ "bang", "number", "list", "signal" ],
												"digest" : "attribute or parameter value (bang, number, list)",
												"hot" : 1,
												"docked" : 0
											}
 ],
										"outputs" : [ 											{
												"name" : "output",
												"type" : [ "bang", "number", "list", "signal" ],
												"digest" : "connect to first inlet of gen or subpatcher",
												"docked" : 0
											}
 ],
										"helpname" : "set",
										"aliasOf" : "set",
										"classname" : "set",
										"operator" : 0,
										"versionId" : 2121358407,
										"changesPatcherIO" : 0
									}
,
									"text" : "set focus"
								}

							}
, 							{
								"box" : 								{
									"id" : "obj-26",
									"maxclass" : "flonum",
									"maximum" : 200.0,
									"minimum" : 0.0,
									"numinlets" : 1,
									"numoutlets" : 1,
									"outlettype" : [ "" ],
									"parameter_enable" : 0,
									"patching_rect" : [ 495.5, 57.0, 50.0, 23.0 ],
									"rnbo_classname" : "number",
									"rnbo_extra_attributes" : 									{
										"maximum" : 200.0,
										"minimum" : 0.0,
										"preset" : 0,
										"initialFormat" : "float",
										"order" : ""
									}
,
									"rnbo_serial" : 3,
									"rnbo_uniqueid" : "number_obj-26"
								}

							}
, 							{
								"box" : 								{
									"id" : "obj-27",
									"maxclass" : "newobj",
									"numinlets" : 1,
									"numoutlets" : 1,
									"outlettype" : [ "" ],
									"patching_rect" : [ 495.5, 99.0, 50.0, 23.0 ],
									"rnbo_classname" : "set",
									"rnbo_serial" : 2,
									"rnbo_uniqueid" : "set_obj-27",
									"rnboinfo" : 									{
										"needsInstanceInfo" : 1,
										"argnames" : 										{
											"name" : 											{
												"attrOrProp" : 2,
												"digest" : "attribute/param to control",
												"defaultarg" : 1,
												"isalias" : 0,
												"aliases" : [  ],
												"settable" : 1,
												"attachable" : 0,
												"isparam" : 0,
												"deprecated" : 0,
												"type" : "symbol",
												"mandatory" : 1
											}

										}
,
										"inputs" : [ 											{
												"name" : "input",
												"type" : [ "bang", "number", "list", "signal" ],
												"digest" : "attribute or parameter value (bang, number, list)",
												"hot" : 1,
												"docked" : 0
											}
 ],
										"outputs" : [ 											{
												"name" : "output",
												"type" : [ "bang", "number", "list", "signal" ],
												"digest" : "connect to first inlet of gen or subpatcher",
												"docked" : 0
											}
 ],
										"helpname" : "set",
										"aliasOf" : "set",
										"classname" : "set",
										"operator" : 0,
										"versionId" : 2121358407,
										"changesPatcherIO" : 0
									}
,
									"text" : "set hold"
								}

							}
, 							{
								"box" : 								{
									"id" : "obj-14",
									"maxclass" : "flonum",
									"maximum" : 500.0,
									"minimum" : 0.0,
									"numinlets" : 1,
									"numoutlets" : 1,
									"outlettype" : [ "" ],
									"parameter_enable" : 0,
									"patching_rect" : [ 415.5, 57.0, 50.0, 23.0 ],
									"rnbo_classname" : "number",
									"rnbo_extra_attributes" : 									{
										"maximum" : 500.0,
										"minimum" : 0.0,
										"preset" : 0,
										"initialFormat" : "float",
										"order" : ""
									}
,
									"rnbo_serial" : 4,
									"rnbo_uniqueid" : "number_obj-14"
								}

							}
, 							{
								"box" : 								{
									"id" : "obj-15",
									"maxclass" : "newobj",
									"numinlets" : 1,
									"numoutlets" : 1,
									"outlettype" : [ "" ],
									"patching_rect" : [ 415.5, 99.0, 64.0, 23.0 ],
									"rnbo_classname" : "set",
									"rnbo_serial" : 3,
									"rnbo_uniqueid" : "set_obj-15",
									"rnboinfo" : 									{
										"needsInstanceInfo" : 1,
										"argnames" : 										{
											"name" : 											{
												"attrOrProp" : 2,
												"digest" : "attribute/param to control",
												"defaultarg" : 1,
												"isalias" : 0,
												"aliases" : [  ],
												"settable" : 1,
												"attachable" : 0,
												"isparam" : 0,
												"deprecated" : 0,
												"type" : "symbol",
												"mandatory" : 1
											}

										}
,
										"inputs" : [ 											{
												"name" : "input",
												"type" : [ "bang", "number", "list", "signal" ],
												"digest" : "attribute or parameter value (bang, number, list)",
												"hot" : 1,
												"docked" : 0
											}
 ],
										"outputs" : [ 											{
												"name" : "output",
												"type" : [ "bang", "number", "list", "signal" ],
												"digest" : "connect to first inlet of gen or subpatcher",
												"docked" : 0
											}
 ],
										"helpname" : "set",
										"aliasOf" : "set",
										"classname" : "set",
										"operator" : 0,
										"versionId" : 2121358407,
										"changesPatcherIO" : 0
									}
,
									"text" : "set release"
								}

							}
, 							{
								"box" : 								{
									"id" : "obj-12",
									"maxclass" : "flonum",
									"maximum" : 500.0,
									"minimum" : 0.0,
									"numinlets" : 1,
									"numoutlets" : 1,
									"outlettype" : [ "" ],
									"parameter_enable" : 0,
									"patching_rect" : [ 324.5, 57.0, 50.0, 23.0 ],
									"rnbo_classname" : "number",
									"rnbo_extra_attributes" : 									{
										"maximum" : 500.0,
										"minimum" : 0.0,
										"preset" : 0,
										"initialFormat" : "float",
										"order" : ""
									}
,
									"rnbo_serial" : 5,
									"rnbo_uniqueid" : "number_obj-12"
								}

							}
, 							{
								"box" : 								{
									"id" : "obj-13",
									"maxclass" : "newobj",
									"numinlets" : 1,
									"numoutlets" : 1,
									"outlettype" : [ "" ],
									"patching_rect" : [ 324.5, 99.0, 60.0, 23.0 ],
									"rnbo_classname" : "set",
									"rnbo_serial" : 4,
									"rnbo_uniqueid" : "set_obj-13",
									"rnboinfo" : 									{
										"needsInstanceInfo" : 1,
										"argnames" : 										{
											"name" : 											{
												"attrOrProp" : 2,
												"digest" : "attribute/param to control",
												"defaultarg" : 1,
												"isalias" : 0,
												"aliases" : [  ],
												"settable" : 1,
												"attachable" : 0,
												"isparam" : 0,
												"deprecated" : 0,
												"type" : "symbol",
												"mandatory" : 1
											}

										}
,
										"inputs" : [ 											{
												"name" : "input",
												"type" : [ "bang", "number", "list", "signal" ],
												"digest" : "attribute or parameter value (bang, number, list)",
												"hot" : 1,
												"docked" : 0
											}
 ],
										"outputs" : [ 											{
												"name" : "output",
												"type" : [ "bang", "number", "list", "signal" ],
												"digest" : "connect to first inlet of gen or subpatcher",
												"docked" : 0
											}
 ],
										"helpname" : "set",
										"aliasOf" : "set",
										"classname" : "set",
										"operator" : 0,
										"versionId" : 2121358407,
										"changesPatcherIO" : 0
									}
,
									"text" : "set attack"
								}

							}
, 							{
								"box" : 								{
									"id" : "obj-11",
									"maxclass" : "flonum",
									"maximum" : 1.0,
									"minimum" : 0.0,
									"numinlets" : 1,
									"numoutlets" : 1,
									"outlettype" : [ "" ],
									"parameter_enable" : 0,
									"patching_rect" : [ 230.0, 47.0, 50.0, 23.0 ],
									"rnbo_classname" : "number",
									"rnbo_extra_attributes" : 									{
										"maximum" : 1.0,
										"minimum" : 0.0,
										"preset" : 0,
										"initialFormat" : "float",
										"order" : ""
									}
,
									"rnbo_serial" : 6,
									"rnbo_uniqueid" : "number_obj-11"
								}

							}
, 							{
								"box" : 								{
									"id" : "obj-7",
									"maxclass" : "newobj",
									"numinlets" : 1,
									"numoutlets" : 1,
									"outlettype" : [ "" ],
									"patching_rect" : [ 230.0, 99.0, 80.0, 23.0 ],
									"rnbo_classname" : "set",
									"rnbo_serial" : 5,
									"rnbo_uniqueid" : "set_obj-7",
									"rnboinfo" : 									{
										"needsInstanceInfo" : 1,
										"argnames" : 										{
											"name" : 											{
												"attrOrProp" : 2,
												"digest" : "attribute/param to control",
												"defaultarg" : 1,
												"isalias" : 0,
												"aliases" : [  ],
												"settable" : 1,
												"attachable" : 0,
												"isparam" : 0,
												"deprecated" : 0,
												"type" : "symbol",
												"mandatory" : 1
											}

										}
,
										"inputs" : [ 											{
												"name" : "input",
												"type" : [ "bang", "number", "list", "signal" ],
												"digest" : "attribute or parameter value (bang, number, list)",
												"hot" : 1,
												"docked" : 0
											}
 ],
										"outputs" : [ 											{
												"name" : "output",
												"type" : [ "bang", "number", "list", "signal" ],
												"digest" : "connect to first inlet of gen or subpatcher",
												"docked" : 0
											}
 ],
										"helpname" : "set",
										"aliasOf" : "set",
										"classname" : "set",
										"operator" : 0,
										"versionId" : 2121358407,
										"changesPatcherIO" : 0
									}
,
									"text" : "set sensitivity"
								}

							}
, 							{
								"box" : 								{
									"id" : "obj-5",
									"maxclass" : "newobj",
									"numinlets" : 1,
									"numoutlets" : 0,
									"patching_rect" : [ 200.0, 305.0, 43.0, 23.0 ],
									"rnbo_classname" : "out~",
									"rnbo_extra_attributes" : 									{
										"meta" : "",
										"comment" : ""
									}
,
									"rnbo_serial" : 2,
									"rnbo_uniqueid" : "out~_obj-5",
									"rnboinfo" : 									{
										"needsInstanceInfo" : 1,
										"argnames" : 										{
											"in1" : 											{
												"attrOrProp" : 1,
												"digest" : "signal sent to outlet with index 1",
												"isalias" : 0,
												"aliases" : [  ],
												"settable" : 0,
												"attachable" : 0,
												"isparam" : 0,
												"deprecated" : 0,
												"inlet" : 1,
												"type" : "signal"
											}
,
											"index" : 											{
												"attrOrProp" : 2,
												"digest" : "outlet number",
												"defaultarg" : 1,
												"isalias" : 0,
												"aliases" : [  ],
												"settable" : 1,
												"attachable" : 0,
												"isparam" : 0,
												"deprecated" : 0,
												"type" : "number",
												"mandatory" : 1
											}
,
											"comment" : 											{
												"attrOrProp" : 2,
												"digest" : "mouse over comment",
												"isalias" : 0,
												"aliases" : [  ],
												"settable" : 1,
												"attachable" : 0,
												"isparam" : 0,
												"deprecated" : 0,
												"type" : "symbol"
											}
,
											"meta" : 											{
												"attrOrProp" : 2,
												"digest" : "A JSON formatted string containing metadata for use by the exported code",
												"isalias" : 0,
												"aliases" : [  ],
												"settable" : 1,
												"attachable" : 0,
												"isparam" : 0,
												"deprecated" : 0,
												"type" : "symbol",
												"defaultValue" : "",
												"label" : "Metadata",
												"displayorder" : 3
											}

										}
,
										"inputs" : [ 											{
												"name" : "in1",
												"type" : "signal",
												"digest" : "signal sent to outlet with index 1",
												"displayName" : "",
												"hot" : 1,
												"docked" : 0
											}
 ],
										"outputs" : [  ],
										"helpname" : "out~",
										"aliasOf" : "out~",
										"classname" : "out~",
										"operator" : 0,
										"versionId" : 374499139,
										"changesPatcherIO" : 1
									}
,
									"text" : "out~ 1"
								}

							}
, 							{
								"box" : 								{
									"id" : "obj-3",
									"maxclass" : "newobj",
									"numinlets" : 0,
									"numoutlets" : 1,
									"outlettype" : [ "signal" ],
									"patching_rect" : [ 347.0, 183.0, 35.0, 23.0 ],
									"rnbo_classname" : "in~",
									"rnbo_extra_attributes" : 									{
										"meta" : "",
										"comment" : ""
									}
,
									"rnbo_serial" : 1,
									"rnbo_uniqueid" : "in~_obj-3",
									"rnboinfo" : 									{
										"needsInstanceInfo" : 1,
										"argnames" : 										{
											"out1" : 											{
												"attrOrProp" : 1,
												"digest" : "signal from inlet with index 2",
												"isalias" : 0,
												"aliases" : [  ],
												"settable" : 0,
												"attachable" : 0,
												"isparam" : 0,
												"deprecated" : 0,
												"outlet" : 1,
												"type" : "signal"
											}
,
											"index" : 											{
												"attrOrProp" : 2,
												"digest" : "inlet number",
												"defaultarg" : 1,
												"isalias" : 0,
												"aliases" : [  ],
												"settable" : 1,
												"attachable" : 0,
												"isparam" : 0,
												"deprecated" : 0,
												"type" : "number",
												"mandatory" : 1
											}
,
											"comment" : 											{
												"attrOrProp" : 2,
												"digest" : "mouse over comment",
												"isalias" : 0,
												"aliases" : [  ],
												"settable" : 1,
												"attachable" : 0,
												"isparam" : 0,
												"deprecated" : 0,
												"type" : "symbol"
											}
,
											"meta" : 											{
												"attrOrProp" : 2,
												"digest" : "A JSON formatted string containing metadata for use by the exported code",
												"isalias" : 0,
												"aliases" : [  ],
												"settable" : 1,
												"attachable" : 0,
												"isparam" : 0,
												"deprecated" : 0,
												"type" : "symbol",
												"defaultValue" : "",
												"label" : "Metadata",
												"displayorder" : 3
											}

										}
,
										"inputs" : [  ],
										"outputs" : [ 											{
												"name" : "out1",
												"type" : "signal",
												"digest" : "signal from inlet with index 2",
												"displayName" : "",
												"docked" : 0
											}
 ],
										"helpname" : "in~",
										"aliasOf" : "in~",
										"classname" : "in~",
										"operator" : 0,
										"versionId" : -176007711,
										"changesPatcherIO" : 1
									}
,
									"text" : "in~ 2"
								}

							}
, 							{
								"box" : 								{
									"id" : "obj-1",
									"maxclass" : "newobj",
									"numinlets" : 0,
									"numoutlets" : 1,
									"outlettype" : [ "signal" ],
									"patching_rect" : [ 200.0, 183.0, 35.0, 23.0 ],
									"rnbo_classname" : "in~",
									"rnbo_extra_attributes" : 									{
										"meta" : "",
										"comment" : ""
									}
,
									"rnbo_serial" : 2,
									"rnbo_uniqueid" : "in~_obj-1",
									"rnboinfo" : 									{
										"needsInstanceInfo" : 1,
										"argnames" : 										{
											"out1" : 											{
												"attrOrProp" : 1,
												"digest" : "signal from inlet with index 1",
												"isalias" : 0,
												"aliases" : [  ],
												"settable" : 0,
												"attachable" : 0,
												"isparam" : 0,
												"deprecated" : 0,
												"outlet" : 1,
												"type" : "signal"
											}
,
											"index" : 											{
												"attrOrProp" : 2,
												"digest" : "inlet number",
												"defaultarg" : 1,
												"isalias" : 0,
												"aliases" : [  ],
												"settable" : 1,
												"attachable" : 0,
												"isparam" : 0,
												"deprecated" : 0,
												"type" : "number",
												"mandatory" : 1
											}
,
											"comment" : 											{
												"attrOrProp" : 2,
												"digest" : "mouse over comment",
												"isalias" : 0,
												"aliases" : [  ],
												"settable" : 1,
												"attachable" : 0,
												"isparam" : 0,
												"deprecated" : 0,
												"type" : "symbol"
											}
,
											"meta" : 											{
												"attrOrProp" : 2,
												"digest" : "A JSON formatted string containing metadata for use by the exported code",
												"isalias" : 0,
												"aliases" : [  ],
												"settable" : 1,
												"attachable" : 0,
												"isparam" : 0,
												"deprecated" : 0,
												"type" : "symbol",
												"defaultValue" : "",
												"label" : "Metadata",
												"displayorder" : 3
											}

										}
,
										"inputs" : [  ],
										"outputs" : [ 											{
												"name" : "out1",
												"type" : "signal",
												"digest" : "signal from inlet with index 1",
												"displayName" : "",
												"docked" : 0
											}
 ],
										"helpname" : "in~",
										"aliasOf" : "in~",
										"classname" : "in~",
										"operator" : 0,
										"versionId" : -176007711,
										"changesPatcherIO" : 1
									}
,
									"text" : "in~ 1"
								}

							}
, 							{
								"box" : 								{
									"genpatcher" : 									{
										"patcher" : 										{
											"fileversion" : 1,
											"appversion" : 											{
												"major" : 8,
												"minor" : 5,
												"revision" : 5,
												"architecture" : "x64",
												"modernui" : 1
											}
,
											"classnamespace" : "dsp.gen",
											"rect" : [ 858.0, 87.0, 900.0, 999.0 ],
											"bglocked" : 0,
											"openinpresentation" : 0,
											"default_fontsize" : 12.0,
											"default_fontface" : 0,
											"default_fontname" : "Arial",
											"gridonopen" : 1,
											"gridsize" : [ 15.0, 15.0 ],
											"gridsnaponopen" : 1,
											"objectsnaponopen" : 1,
											"statusbarvisible" : 2,
											"toolbarvisible" : 1,
											"lefttoolbarpinned" : 0,
											"toptoolbarpinned" : 0,
											"righttoolbarpinned" : 0,
											"bottomtoolbarpinned" : 0,
											"toolbars_unpinned_last_save" : 0,
											"tallnewobj" : 0,
											"boxanimatetime" : 200,
											"enablehscroll" : 1,
											"enablevscroll" : 1,
											"devicewidth" : 0.0,
											"description" : "",
											"digest" : "",
											"tags" : "",
											"style" : "",
											"subpatcher_template" : "",
											"assistshowspatchername" : 0,
											"boxes" : [ 												{
													"box" : 													{
														"maxclass" : "newobj",
														"text" : "param select @min 0 @max 1",
														"patching_rect" : [ 343.0, 68.0, 170.0, 22.0 ],
														"outlettype" : [ "" ],
														"id" : "obj-3",
														"numinlets" : 0,
														"numoutlets" : 1
													}

												}
, 												{
													"box" : 													{
														"maxclass" : "newobj",
														"text" : "mix select",
														"patching_rect" : [ 237.0, 103.0, 62.0, 22.0 ],
														"outlettype" : [ "" ],
														"id" : "obj-47",
														"numinlets" : 2,
														"numoutlets" : 1
													}

												}
, 												{
													"box" : 													{
														"maxclass" : "newobj",
														"hint" : "Clock In",
														"annotation" : "Clock In",
														"text" : "in 3",
														"patching_rect" : [ 331.0, 20.0, 28.0, 22.0 ],
														"outlettype" : [ "" ],
														"id" : "obj-45",
														"numinlets" : 0,
														"numoutlets" : 1
													}

												}
, 												{
													"box" : 													{
														"maxclass" : "newobj",
														"text" : "out 2",
														"patching_rect" : [ 285.0, 570.0, 35.0, 22.0 ],
														"id" : "obj-42",
														"numinlets" : 1,
														"numoutlets" : 0
													}

												}
, 												{
													"box" : 													{
														"maxclass" : "newobj",
														"text" : "out 1",
														"patching_rect" : [ 183.0, 570.0, 35.0, 22.0 ],
														"id" : "obj-41",
														"numinlets" : 1,
														"numoutlets" : 0
													}

												}
, 												{
													"box" : 													{
														"maxclass" : "newobj",
														"text" : "mix focus",
														"patching_rect" : [ 285.0, 523.0, 59.0, 22.0 ],
														"outlettype" : [ "" ],
														"id" : "obj-39",
														"numinlets" : 2,
														"numoutlets" : 1
													}

												}
, 												{
													"box" : 													{
														"maxclass" : "newobj",
														"text" : "param focus 0.5 @min 0 @max 1",
														"patching_rect" : [ 377.0, 523.0, 188.0, 22.0 ],
														"outlettype" : [ "" ],
														"id" : "obj-38",
														"numinlets" : 0,
														"numoutlets" : 1
													}

												}
, 												{
													"box" : 													{
														"maxclass" : "newobj",
														"text" : "mix focus",
														"patching_rect" : [ 183.0, 523.0, 59.0, 22.0 ],
														"outlettype" : [ "" ],
														"id" : "obj-37",
														"numinlets" : 2,
														"numoutlets" : 1
													}

												}
, 												{
													"box" : 													{
														"maxclass" : "newobj",
														"text" : "!- 1",
														"patching_rect" : [ 329.5, 423.0, 26.0, 22.0 ],
														"outlettype" : [ "" ],
														"id" : "obj-33",
														"numinlets" : 1,
														"numoutlets" : 1
													}

												}
, 												{
													"box" : 													{
														"maxclass" : "newobj",
														"text" : "*",
														"patching_rect" : [ 319.0, 467.0, 29.5, 22.0 ],
														"outlettype" : [ "" ],
														"id" : "obj-34",
														"numinlets" : 2,
														"numoutlets" : 1
													}

												}
, 												{
													"box" : 													{
														"maxclass" : "newobj",
														"text" : "*",
														"patching_rect" : [ 285.0, 467.0, 29.5, 22.0 ],
														"outlettype" : [ "" ],
														"id" : "obj-35",
														"numinlets" : 2,
														"numoutlets" : 1
													}

												}
, 												{
													"box" : 													{
														"maxclass" : "newobj",
														"text" : "!- 1",
														"patching_rect" : [ 227.5, 423.0, 26.0, 22.0 ],
														"outlettype" : [ "" ],
														"id" : "obj-32",
														"numinlets" : 1,
														"numoutlets" : 1
													}

												}
, 												{
													"box" : 													{
														"maxclass" : "newobj",
														"text" : "*",
														"patching_rect" : [ 217.0, 467.0, 29.5, 22.0 ],
														"outlettype" : [ "" ],
														"id" : "obj-31",
														"numinlets" : 2,
														"numoutlets" : 1
													}

												}
, 												{
													"box" : 													{
														"maxclass" : "newobj",
														"text" : "*",
														"patching_rect" : [ 183.0, 467.0, 29.5, 22.0 ],
														"outlettype" : [ "" ],
														"id" : "obj-29",
														"numinlets" : 2,
														"numoutlets" : 1
													}

												}
, 												{
													"box" : 													{
														"maxclass" : "newobj",
														"hint" : "Left Input",
														"annotation" : "Left Input",
														"text" : "in 1",
														"patching_rect" : [ 153.0, 405.0, 28.0, 22.0 ],
														"outlettype" : [ "" ],
														"id" : "obj-27",
														"numinlets" : 0,
														"numoutlets" : 1
													}

												}
, 												{
													"box" : 													{
														"maxclass" : "newobj",
														"hint" : "Right Input",
														"annotation" : "Right Input",
														"text" : "in 2",
														"patching_rect" : [ 285.0, 405.0, 28.0, 22.0 ],
														"outlettype" : [ "" ],
														"id" : "obj-28",
														"numinlets" : 0,
														"numoutlets" : 1
													}

												}
, 												{
													"box" : 													{
														"maxclass" : "newobj",
														"text" : "or",
														"patching_rect" : [ 237.0, 271.0, 29.5, 22.0 ],
														"outlettype" : [ "" ],
														"id" : "obj-24",
														"numinlets" : 2,
														"numoutlets" : 1
													}

												}
, 												{
													"box" : 													{
														"maxclass" : "newobj",
														"text" : "mstosamps",
														"patching_rect" : [ 17.0, 120.0, 70.0, 22.0 ],
														"outlettype" : [ "" ],
														"id" : "obj-23",
														"numinlets" : 1,
														"numoutlets" : 1
													}

												}
, 												{
													"box" : 													{
														"maxclass" : "newobj",
														"text" : "param hold 0 @min 0 @max 200",
														"patching_rect" : [ 17.0, 93.0, 185.0, 22.0 ],
														"outlettype" : [ "" ],
														"id" : "obj-22",
														"numinlets" : 0,
														"numoutlets" : 1
													}

												}
, 												{
													"box" : 													{
														"maxclass" : "newobj",
														"text" : "<",
														"patching_rect" : [ 126.5, 226.0, 29.5, 22.0 ],
														"outlettype" : [ "" ],
														"id" : "obj-21",
														"numinlets" : 2,
														"numoutlets" : 1
													}

												}
, 												{
													"box" : 													{
														"maxclass" : "newobj",
														"text" : "1",
														"patching_rect" : [ 126.5, 165.0, 19.0, 22.0 ],
														"outlettype" : [ "" ],
														"id" : "obj-20",
														"numinlets" : 0,
														"numoutlets" : 1
													}

												}
, 												{
													"box" : 													{
														"maxclass" : "newobj",
														"text" : "accum",
														"patching_rect" : [ 126.5, 195.0, 44.0, 22.0 ],
														"outlettype" : [ "" ],
														"id" : "obj-18",
														"numinlets" : 2,
														"numoutlets" : 1
													}

												}
, 												{
													"box" : 													{
														"maxclass" : "newobj",
														"text" : "mstosamps",
														"patching_rect" : [ 528.5, 275.0, 70.0, 22.0 ],
														"outlettype" : [ "" ],
														"id" : "obj-17",
														"numinlets" : 1,
														"numoutlets" : 1
													}

												}
, 												{
													"box" : 													{
														"maxclass" : "newobj",
														"text" : "mstosamps",
														"patching_rect" : [ 331.0, 275.0, 70.0, 22.0 ],
														"outlettype" : [ "" ],
														"id" : "obj-16",
														"numinlets" : 1,
														"numoutlets" : 1
													}

												}
, 												{
													"box" : 													{
														"maxclass" : "newobj",
														"text" : "param release 0 @min 0 @max 500",
														"patching_rect" : [ 528.5, 248.0, 202.0, 22.0 ],
														"outlettype" : [ "" ],
														"id" : "obj-15",
														"numinlets" : 0,
														"numoutlets" : 1
													}

												}
, 												{
													"box" : 													{
														"maxclass" : "newobj",
														"text" : "param attack 0 @min 0 @max 500",
														"patching_rect" : [ 331.0, 248.0, 194.0, 22.0 ],
														"outlettype" : [ "" ],
														"id" : "obj-14",
														"numinlets" : 0,
														"numoutlets" : 1
													}

												}
, 												{
													"box" : 													{
														"maxclass" : "newobj",
														"text" : "slide",
														"patching_rect" : [ 237.0, 331.0, 72.0, 22.0 ],
														"outlettype" : [ "" ],
														"id" : "obj-13",
														"numinlets" : 3,
														"numoutlets" : 1
													}

												}
, 												{
													"box" : 													{
														"maxclass" : "newobj",
														"text" : "param sensitivity 0.5 @min 0 @max 1",
														"patching_rect" : [ 331.0, 123.0, 211.0, 22.0 ],
														"outlettype" : [ "" ],
														"id" : "obj-12",
														"numinlets" : 0,
														"numoutlets" : 1
													}

												}
, 												{
													"box" : 													{
														"maxclass" : "newobj",
														"text" : ">",
														"patching_rect" : [ 237.0, 216.0, 29.5, 22.0 ],
														"outlettype" : [ "" ],
														"id" : "obj-11",
														"numinlets" : 2,
														"numoutlets" : 1
													}

												}
, 												{
													"box" : 													{
														"maxclass" : "newobj",
														"text" : "abs",
														"patching_rect" : [ 237.0, 178.0, 28.0, 22.0 ],
														"outlettype" : [ "" ],
														"id" : "obj-10",
														"numinlets" : 1,
														"numoutlets" : 1
													}

												}
, 												{
													"box" : 													{
														"maxclass" : "newobj",
														"text" : "delta",
														"patching_rect" : [ 237.0, 148.0, 35.0, 22.0 ],
														"outlettype" : [ "" ],
														"id" : "obj-6",
														"numinlets" : 1,
														"numoutlets" : 1
													}

												}
, 												{
													"box" : 													{
														"maxclass" : "newobj",
														"text" : "* 0.5",
														"patching_rect" : [ 237.0, 63.0, 33.0, 22.0 ],
														"outlettype" : [ "" ],
														"id" : "obj-4",
														"numinlets" : 1,
														"numoutlets" : 1
													}

												}
, 												{
													"box" : 													{
														"maxclass" : "newobj",
														"hint" : "Left Input",
														"annotation" : "Left Input",
														"text" : "in 1",
														"patching_rect" : [ 207.0, 20.0, 28.0, 22.0 ],
														"outlettype" : [ "" ],
														"id" : "obj-1",
														"numinlets" : 0,
														"numoutlets" : 1
													}

												}
, 												{
													"box" : 													{
														"maxclass" : "newobj",
														"hint" : "Right Input",
														"annotation" : "Right Input",
														"text" : "in 2",
														"patching_rect" : [ 265.0, 20.0, 28.0, 22.0 ],
														"outlettype" : [ "" ],
														"id" : "obj-2",
														"numinlets" : 0,
														"numoutlets" : 1
													}

												}
 ],
											"lines" : [ 												{
													"patchline" : 													{
														"source" : [ "obj-1", 0 ],
														"destination" : [ "obj-4", 0 ]
													}

												}
, 												{
													"patchline" : 													{
														"source" : [ "obj-2", 0 ],
														"destination" : [ "obj-4", 0 ]
													}

												}
, 												{
													"patchline" : 													{
														"source" : [ "obj-6", 0 ],
														"destination" : [ "obj-10", 0 ]
													}

												}
, 												{
													"patchline" : 													{
														"source" : [ "obj-12", 0 ],
														"destination" : [ "obj-11", 1 ]
													}

												}
, 												{
													"patchline" : 													{
														"source" : [ "obj-10", 0 ],
														"destination" : [ "obj-11", 0 ]
													}

												}
, 												{
													"patchline" : 													{
														"source" : [ "obj-15", 0 ],
														"destination" : [ "obj-17", 0 ]
													}

												}
, 												{
													"patchline" : 													{
														"source" : [ "obj-14", 0 ],
														"destination" : [ "obj-16", 0 ]
													}

												}
, 												{
													"patchline" : 													{
														"source" : [ "obj-16", 0 ],
														"destination" : [ "obj-13", 1 ]
													}

												}
, 												{
													"patchline" : 													{
														"source" : [ "obj-17", 0 ],
														"destination" : [ "obj-13", 2 ]
													}

												}
, 												{
													"patchline" : 													{
														"source" : [ "obj-20", 0 ],
														"destination" : [ "obj-18", 0 ]
													}

												}
, 												{
													"patchline" : 													{
														"source" : [ "obj-11", 0 ],
														"destination" : [ "obj-18", 1 ],
														"order" : 1
													}

												}
, 												{
													"patchline" : 													{
														"source" : [ "obj-18", 0 ],
														"destination" : [ "obj-21", 0 ]
													}

												}
, 												{
													"patchline" : 													{
														"source" : [ "obj-22", 0 ],
														"destination" : [ "obj-23", 0 ]
													}

												}
, 												{
													"patchline" : 													{
														"source" : [ "obj-23", 0 ],
														"destination" : [ "obj-21", 1 ]
													}

												}
, 												{
													"patchline" : 													{
														"source" : [ "obj-24", 0 ],
														"destination" : [ "obj-13", 0 ]
													}

												}
, 												{
													"patchline" : 													{
														"source" : [ "obj-11", 0 ],
														"destination" : [ "obj-24", 1 ],
														"order" : 0
													}

												}
, 												{
													"patchline" : 													{
														"source" : [ "obj-21", 0 ],
														"destination" : [ "obj-24", 0 ]
													}

												}
, 												{
													"patchline" : 													{
														"source" : [ "obj-27", 0 ],
														"destination" : [ "obj-29", 0 ],
														"order" : 1
													}

												}
, 												{
													"patchline" : 													{
														"source" : [ "obj-13", 0 ],
														"destination" : [ "obj-29", 1 ],
														"order" : 3
													}

												}
, 												{
													"patchline" : 													{
														"source" : [ "obj-13", 0 ],
														"destination" : [ "obj-32", 0 ],
														"order" : 2
													}

												}
, 												{
													"patchline" : 													{
														"source" : [ "obj-32", 0 ],
														"destination" : [ "obj-31", 1 ]
													}

												}
, 												{
													"patchline" : 													{
														"source" : [ "obj-27", 0 ],
														"destination" : [ "obj-31", 0 ],
														"order" : 0
													}

												}
, 												{
													"patchline" : 													{
														"source" : [ "obj-33", 0 ],
														"destination" : [ "obj-34", 1 ]
													}

												}
, 												{
													"patchline" : 													{
														"source" : [ "obj-28", 0 ],
														"destination" : [ "obj-35", 0 ],
														"order" : 1
													}

												}
, 												{
													"patchline" : 													{
														"source" : [ "obj-28", 0 ],
														"destination" : [ "obj-34", 0 ],
														"order" : 0
													}

												}
, 												{
													"patchline" : 													{
														"source" : [ "obj-13", 0 ],
														"destination" : [ "obj-35", 1 ],
														"order" : 1
													}

												}
, 												{
													"patchline" : 													{
														"source" : [ "obj-13", 0 ],
														"destination" : [ "obj-33", 0 ],
														"order" : 0
													}

												}
, 												{
													"patchline" : 													{
														"source" : [ "obj-31", 0 ],
														"destination" : [ "obj-37", 1 ]
													}

												}
, 												{
													"patchline" : 													{
														"source" : [ "obj-29", 0 ],
														"destination" : [ "obj-37", 0 ]
													}

												}
, 												{
													"patchline" : 													{
														"source" : [ "obj-35", 0 ],
														"destination" : [ "obj-39", 0 ]
													}

												}
, 												{
													"patchline" : 													{
														"source" : [ "obj-34", 0 ],
														"destination" : [ "obj-39", 1 ]
													}

												}
, 												{
													"patchline" : 													{
														"source" : [ "obj-37", 0 ],
														"destination" : [ "obj-41", 0 ]
													}

												}
, 												{
													"patchline" : 													{
														"source" : [ "obj-39", 0 ],
														"destination" : [ "obj-42", 0 ]
													}

												}
, 												{
													"patchline" : 													{
														"source" : [ "obj-45", 0 ],
														"destination" : [ "obj-47", 1 ]
													}

												}
, 												{
													"patchline" : 													{
														"source" : [ "obj-4", 0 ],
														"destination" : [ "obj-47", 0 ]
													}

												}
, 												{
													"patchline" : 													{
														"source" : [ "obj-47", 0 ],
														"destination" : [ "obj-6", 0 ]
													}

												}
 ]
										}

									}
,
									"id" : "obj-2",
									"maxclass" : "newobj",
									"numinlets" : 3,
									"numoutlets" : 2,
									"outlettype" : [ "signal", "signal" ],
									"patching_rect" : [ 200.0, 227.0, 166.0, 23.0 ],
									"rnbo_classname" : "gen~",
									"rnbo_extra_attributes" : 									{
										"exposeparams" : 0
									}
,
									"rnbo_serial" : 1,
									"rnbo_uniqueid" : "TransientDesigner",
									"rnboinfo" : 									{
										"needsInstanceInfo" : 1,
										"argnames" : 										{
											"in1" : 											{
												"attrOrProp" : 1,
												"digest" : "in1",
												"isalias" : 0,
												"aliases" : [  ],
												"attachable" : 0,
												"isparam" : 0,
												"deprecated" : 0,
												"inlet" : 1,
												"type" : "number"
											}
,
											"reset" : 											{
												"attrOrProp" : 1,
												"digest" : "Reset all param and history objects to initial values",
												"isalias" : 0,
												"aliases" : [  ],
												"attachable" : 1,
												"isparam" : 0,
												"deprecated" : 0,
												"type" : "bang"
											}
,
											"expr" : 											{
												"attrOrProp" : 2,
												"digest" : "a gen expression",
												"isalias" : 0,
												"aliases" : [  ],
												"settable" : 1,
												"attachable" : 0,
												"isparam" : 0,
												"deprecated" : 0,
												"type" : "symbol",
												"doNotShowInMaxInspector" : 1
											}
,
											"file" : 											{
												"attrOrProp" : 2,
												"digest" : "gendsp file to load",
												"isalias" : 0,
												"aliases" : [  ],
												"settable" : 1,
												"attachable" : 0,
												"isparam" : 0,
												"deprecated" : 0,
												"type" : "symbol",
												"doNotShowInMaxInspector" : 1
											}
,
											"title" : 											{
												"attrOrProp" : 2,
												"digest" : "a title",
												"defaultarg" : 1,
												"isalias" : 0,
												"aliases" : [ "t" ],
												"settable" : 1,
												"attachable" : 0,
												"isparam" : 0,
												"deprecated" : 0,
												"type" : "symbol",
												"doNotShowInMaxInspector" : 1
											}
,
											"t" : 											{
												"attrOrProp" : 2,
												"digest" : "a title",
												"defaultarg" : 1,
												"isalias" : 1,
												"aliasOf" : "title",
												"aliases" : [  ],
												"settable" : 1,
												"attachable" : 0,
												"isparam" : 0,
												"deprecated" : 0,
												"type" : "symbol"
											}
,
											"exposeparams" : 											{
												"attrOrProp" : 2,
												"digest" : "Expose gen params as RNBO params.",
												"isalias" : 0,
												"aliases" : [  ],
												"settable" : 1,
												"attachable" : 0,
												"isparam" : 0,
												"deprecated" : 0,
												"type" : "bool",
												"defaultValue" : "false"
											}

										}
,
										"inputs" : [ 											{
												"name" : "in1",
												"type" : "auto",
												"digest" : "in1",
												"hot" : 1,
												"docked" : 0
											}
, 											{
												"name" : "in2",
												"type" : "auto"
											}
, 											{
												"name" : "in3",
												"type" : "auto"
											}
 ],
										"outputs" : [ 											{
												"name" : "out1",
												"type" : "signal"
											}
, 											{
												"name" : "out2",
												"type" : "signal"
											}
 ],
										"helpname" : "gen~",
										"aliasOf" : "gen~",
										"classname" : "gen~",
										"operator" : 0,
										"versionId" : 1405647718,
										"changesPatcherIO" : 0
									}
,
									"text" : "gen~ @title TransientDesigner",
									"varname" : "TransientDesigner"
								}

							}
 ],
						"lines" : [ 							{
								"patchline" : 								{
									"destination" : [ "obj-2", 0 ],
									"source" : [ "obj-1", 0 ]
								}

							}
, 							{
								"patchline" : 								{
									"destination" : [ "obj-7", 0 ],
									"source" : [ "obj-11", 0 ]
								}

							}
, 							{
								"patchline" : 								{
									"destination" : [ "obj-13", 0 ],
									"source" : [ "obj-12", 0 ]
								}

							}
, 							{
								"patchline" : 								{
									"destination" : [ "obj-2", 0 ],
									"source" : [ "obj-13", 0 ]
								}

							}
, 							{
								"patchline" : 								{
									"destination" : [ "obj-15", 0 ],
									"source" : [ "obj-14", 0 ]
								}

							}
, 							{
								"patchline" : 								{
									"destination" : [ "obj-2", 0 ],
									"source" : [ "obj-15", 0 ]
								}

							}
, 							{
								"patchline" : 								{
									"destination" : [ "obj-30", 0 ],
									"source" : [ "obj-2", 1 ]
								}

							}
, 							{
								"patchline" : 								{
									"destination" : [ "obj-5", 0 ],
									"source" : [ "obj-2", 0 ]
								}

							}
, 							{
								"patchline" : 								{
									"destination" : [ "obj-27", 0 ],
									"source" : [ "obj-26", 0 ]
								}

							}
, 							{
								"patchline" : 								{
									"destination" : [ "obj-2", 0 ],
									"source" : [ "obj-27", 0 ]
								}

							}
, 							{
								"patchline" : 								{
									"destination" : [ "obj-29", 0 ],
									"source" : [ "obj-28", 0 ]
								}

							}
, 							{
								"patchline" : 								{
									"destination" : [ "obj-2", 0 ],
									"source" : [ "obj-29", 0 ]
								}

							}
, 							{
								"patchline" : 								{
									"destination" : [ "obj-2", 1 ],
									"source" : [ "obj-3", 0 ]
								}

							}
, 							{
								"patchline" : 								{
									"destination" : [ "obj-47", 0 ],
									"source" : [ "obj-33", 0 ]
								}

							}
, 							{
								"patchline" : 								{
									"destination" : [ "obj-47", 0 ],
									"source" : [ "obj-34", 0 ]
								}

							}
, 							{
								"patchline" : 								{
									"destination" : [ "obj-47", 0 ],
									"source" : [ "obj-35", 0 ]
								}

							}
, 							{
								"patchline" : 								{
									"destination" : [ "obj-40", 1 ],
									"source" : [ "obj-39", 0 ]
								}

							}
, 							{
								"patchline" : 								{
									"destination" : [ "obj-2", 2 ],
									"source" : [ "obj-40", 0 ]
								}

							}
, 							{
								"patchline" : 								{
									"destination" : [ "obj-47", 1 ],
									"source" : [ "obj-44", 0 ]
								}

							}
, 							{
								"patchline" : 								{
									"destination" : [ "obj-39", 0 ],
									"source" : [ "obj-46", 0 ]
								}

							}
, 							{
								"patchline" : 								{
									"destination" : [ "obj-39", 1 ],
									"source" : [ "obj-47", 0 ]
								}

							}
, 							{
								"patchline" : 								{
									"destination" : [ "obj-2", 0 ],
									"source" : [ "obj-6", 0 ]
								}

							}
, 							{
								"patchline" : 								{
									"destination" : [ "obj-2", 0 ],
									"source" : [ "obj-7", 0 ]
								}

							}
, 							{
								"patchline" : 								{
									"destination" : [ "obj-6", 0 ],
									"source" : [ "obj-9", 0 ]
								}

							}
 ],
						"default_bgcolor" : [ 0.031372549019608, 0.125490196078431, 0.211764705882353, 1.0 ],
						"color" : [ 0.929412, 0.929412, 0.352941, 1.0 ],
						"elementcolor" : [ 0.357540726661682, 0.515565991401672, 0.861786782741547, 1.0 ],
						"accentcolor" : [ 0.343034118413925, 0.506230533123016, 0.86220508813858, 1.0 ],
						"textcolor_inverse" : [ 0.968627, 0.968627, 0.968627, 1.0 ],
						"stripecolor" : [ 0.258338063955307, 0.352425158023834, 0.511919498443604, 1.0 ],
						"bgfillcolor_type" : "color",
						"bgfillcolor_color" : [ 0.031372549019608, 0.125490196078431, 0.211764705882353, 1.0 ],
						"bgfillcolor_color1" : [ 0.031372549019608, 0.125490196078431, 0.211764705882353, 1.0 ],
						"bgfillcolor_color2" : [ 0.263682, 0.004541, 0.038797, 1.0 ],
						"bgfillcolor_angle" : 270.0,
						"bgfillcolor_proportion" : 0.39,
						"bgfillcolor_autogradient" : 0.0
					}
,
					"patching_rect" : [ 182.0, 145.0, 75.0, 22.0 ],
					"rnboattrcache" : 					{

					}
,
					"rnboversion" : "1.2.1",
					"saved_attribute_attributes" : 					{
						"valueof" : 						{
							"parameter_invisible" : 1,
							"parameter_longname" : "rnbo~",
							"parameter_shortname" : "rnbo~",
							"parameter_type" : 3
						}

					}
,
					"saved_object_attributes" : 					{
						"optimization" : "O1",
						"parameter_enable" : 1,
						"uuid" : "96b12ead-bece-11ee-aead-acde48001122"
					}
,
					"snapshot" : 					{
						"filetype" : "C74Snapshot",
						"version" : 2,
						"minorversion" : 0,
						"name" : "snapshotlist",
						"origin" : "rnbo~",
						"type" : "list",
						"subtype" : "Undefined",
						"embed" : 1,
						"snapshot" : 						{
							"__presetid" : "96b12ead-bece-11ee-aead-acde48001122"
						}
,
						"snapshotlist" : 						{
							"current_snapshot" : 0,
							"entries" : [ 								{
									"filetype" : "C74Snapshot",
									"version" : 2,
									"minorversion" : 0,
									"name" : "untitled",
									"origin" : "96b12ead-bece-11ee-aead-acde48001122",
									"type" : "rnbo",
									"subtype" : "",
									"embed" : 0,
									"snapshot" : 									{
										"__presetid" : "96b12ead-bece-11ee-aead-acde48001122"
									}
,
									"fileref" : 									{
										"name" : "untitled",
										"filename" : "untitled_20240129_1.maxsnap",
										"filepath" : "~/Documents/Max 8/Snapshots",
										"filepos" : -1,
										"snapshotfileid" : "7521f67e6efe801b81977971b37bc513"
									}

								}
 ]
						}

					}
,
					"text" : "rnbo~",
					"varname" : "rnbo~"
				}

			}
, 			{
				"box" : 				{
					"attr" : "speed",
					"id" : "obj-20",
					"maxclass" : "attrui",
					"numinlets" : 1,
					"numoutlets" : 1,
					"outlettype" : [ "" ],
					"parameter_enable" : 0,
					"patching_rect" : [ 178.0, 58.0, 150.0, 22.0 ]
				}

			}
, 			{
				"box" : 				{
					"attr" : "timestretch",
					"id" : "obj-21",
					"maxclass" : "attrui",
					"numinlets" : 1,
					"numoutlets" : 1,
					"outlettype" : [ "" ],
					"parameter_enable" : 0,
					"patching_rect" : [ 332.0, 58.0, 150.0, 22.0 ]
				}

			}
 ],
		"lines" : [ 			{
				"patchline" : 				{
					"destination" : [ "obj-5", 1 ],
					"source" : [ "obj-1", 1 ]
				}

			}
, 			{
				"patchline" : 				{
					"destination" : [ "obj-5", 0 ],
					"order" : 1,
					"source" : [ "obj-1", 0 ]
				}

			}
, 			{
				"patchline" : 				{
					"destination" : [ "obj-8", 0 ],
					"order" : 0,
					"source" : [ "obj-1", 0 ]
				}

			}
, 			{
				"patchline" : 				{
					"destination" : [ "obj-3", 0 ],
					"source" : [ "obj-20", 0 ]
				}

			}
, 			{
				"patchline" : 				{
					"destination" : [ "obj-3", 0 ],
					"source" : [ "obj-21", 0 ]
				}

			}
, 			{
				"patchline" : 				{
					"destination" : [ "obj-1", 1 ],
					"source" : [ "obj-23", 1 ]
				}

			}
, 			{
				"patchline" : 				{
					"destination" : [ "obj-1", 0 ],
					"source" : [ "obj-23", 0 ]
				}

			}
, 			{
				"patchline" : 				{
					"destination" : [ "obj-23", 0 ],
					"source" : [ "obj-24", 0 ]
				}

			}
, 			{
				"patchline" : 				{
					"destination" : [ "obj-23", 0 ],
					"source" : [ "obj-25", 0 ]
				}

			}
, 			{
				"patchline" : 				{
					"destination" : [ "obj-1", 1 ],
					"order" : 0,
					"source" : [ "obj-27", 0 ]
				}

			}
, 			{
				"patchline" : 				{
					"destination" : [ "obj-1", 0 ],
					"order" : 1,
					"source" : [ "obj-27", 0 ]
				}

			}
, 			{
				"patchline" : 				{
					"destination" : [ "obj-27", 0 ],
					"source" : [ "obj-28", 0 ]
				}

			}
, 			{
				"patchline" : 				{
					"destination" : [ "obj-27", 0 ],
					"source" : [ "obj-29", 0 ]
				}

			}
, 			{
				"patchline" : 				{
					"destination" : [ "obj-1", 1 ],
					"source" : [ "obj-3", 1 ]
				}

			}
, 			{
				"patchline" : 				{
					"destination" : [ "obj-1", 0 ],
					"source" : [ "obj-3", 0 ]
				}

			}
 ],
		"parameters" : 		{
			"obj-1" : [ "rnbo~", "rnbo~", 0 ],
			"parameterbanks" : 			{
				"0" : 				{
					"index" : 0,
					"name" : "",
					"parameters" : [ "-", "-", "-", "-", "-", "-", "-", "-" ]
				}

			}
,
			"inherited_shortname" : 1
		}
,
		"dependency_cache" : [ 			{
				"name" : "DNB_BREAK_112.wav",
				"bootpath" : "~/Music/Ableton/User Library/Drum Breaks/1dnb/DnB Breaks",
				"patcherrelativepath" : "../../../../Music/Ableton/User Library/Drum Breaks/1dnb/DnB Breaks",
				"type" : "WAVE",
				"implicit" : 1
			}
, 			{
				"name" : "I-85 N 2.m4a",
				"bootpath" : "~/Downloads",
				"patcherrelativepath" : "../../../../Downloads",
				"type" : "M4a",
				"implicit" : 1
			}
, 			{
				"name" : "kid.wav",
				"bootpath" : "~/Desktop/Exports",
				"patcherrelativepath" : "../../../Exports",
				"type" : "WAVE",
				"implicit" : 1
			}
, 			{
				"name" : "untitled_20240129_1.maxsnap",
				"bootpath" : "~/Documents/Max 8/Snapshots",
				"patcherrelativepath" : "../../../../Documents/Max 8/Snapshots",
				"type" : "mx@s",
				"implicit" : 1
			}
 ],
		"autosave" : 0
	}

}
